<svg width="18" height="16" viewBox="0 0 18 16" fill="none" xmlns="http://www.w3.org/2000/svg">
<path d="M2 13.0837V16H4.91627L13.5173 7.39895L10.6011 4.48268L2 13.0837ZM15.7726 5.1437C15.8447 5.07175 15.9019 4.98629 15.9409 4.89222C15.9799 4.79814 16 4.69729 16 4.59544C16 4.49359 15.9799 4.39274 15.9409 4.29866C15.9019 4.20458 15.8447 4.11912 15.7726 4.04718L13.9528 2.22743C13.8809 2.15533 13.7954 2.09814 13.7013 2.05911C13.6073 2.02009 13.5064 2 13.4046 2C13.3027 2 13.2019 2.02009 13.1078 2.05911C13.0137 2.09814 12.9282 2.15533 12.8563 2.22743L11.4332 3.65057L14.3494 6.56684L15.7726 5.1437Z" fill="#D0D0D0"/>
</svg>
