<svg width="18" height="16" viewBox="0 0 18 16" fill="none" xmlns="http://www.w3.org/2000/svg">
<path d="M9.86239 0C10.0976 0 10.308 0.146399 10.3872 0.365597L10.9519 1.93118C11.1541 1.98131 11.3285 2.03251 11.4751 2.08478C11.6351 2.14185 11.8431 2.22985 12.0991 2.34878L13.4143 1.65278C13.5215 1.59565 13.6445 1.57497 13.7646 1.59388C13.8846 1.61279 13.9953 1.67025 14.0798 1.75758L15.2366 2.95357C15.3902 3.11277 15.4334 3.34557 15.347 3.54877L14.7302 4.99435C14.8321 5.18208 14.9142 5.34315 14.9766 5.47755C15.0438 5.62315 15.127 5.82581 15.2262 6.08554L16.6638 6.70154C16.8797 6.79354 17.0133 7.00953 16.9989 7.24073L16.8933 8.90072C16.8861 9.00856 16.8474 9.11191 16.782 9.19795C16.7166 9.28398 16.6273 9.34892 16.5254 9.38471L15.1638 9.86871C15.1249 10.0564 15.0838 10.218 15.0406 10.3535C14.9707 10.5635 14.8912 10.7701 14.8022 10.9727L15.4862 12.4847C15.5349 12.5908 15.5481 12.7098 15.5239 12.8241C15.4997 12.9383 15.4393 13.0418 15.3518 13.1191L14.051 14.2807C13.9655 14.3571 13.8586 14.4055 13.7447 14.4193C13.6309 14.433 13.5155 14.4114 13.4143 14.3575L12.0735 13.6471C11.864 13.7586 11.6475 13.8566 11.4255 13.9407L10.84 14.1599L10.32 15.5999C10.2811 15.7051 10.2115 15.7962 10.1202 15.8613C10.0289 15.9265 9.92013 15.9628 9.80799 15.9654L8.28804 15.9998C8.17289 16.0025 8.05971 15.9696 7.96394 15.9056C7.86817 15.8416 7.79446 15.7497 7.75286 15.6423L7.14008 14.0207C6.93106 13.9491 6.72405 13.8717 6.5193 13.7887C6.35188 13.7162 6.18699 13.638 6.02492 13.5543L4.50497 14.2039C4.40486 14.2468 4.2944 14.2596 4.18712 14.2407C4.07985 14.2218 3.98041 14.172 3.90099 14.0975L2.77623 13.0423C2.69218 12.9643 2.63493 12.8617 2.61266 12.7492C2.59039 12.6367 2.60424 12.52 2.65224 12.4159L3.30581 10.9919C3.2192 10.8231 3.13862 10.6512 3.06422 10.4767C2.97756 10.263 2.89753 10.0466 2.82423 9.82791L1.39228 9.39191C1.27589 9.35673 1.17436 9.2841 1.10348 9.1853C1.0326 9.08649 0.996327 8.96705 1.00029 8.84552L1.05629 7.30873C1.06045 7.2085 1.09184 7.11131 1.1471 7.02758C1.20235 6.94386 1.27937 6.87677 1.36988 6.83354L2.87223 6.11194C2.94156 5.85701 3.00289 5.65755 3.05622 5.51355C3.1317 5.32015 3.21551 5.13011 3.30741 4.94395L2.65624 3.56797C2.60644 3.46355 2.59123 3.34598 2.61281 3.23233C2.63439 3.11868 2.69163 3.01487 2.77623 2.93597L3.89939 1.87518C3.97802 1.80075 4.07654 1.7507 4.18303 1.73111C4.28952 1.71151 4.3994 1.72321 4.49937 1.76478L6.01772 2.39198C6.18518 2.28051 6.33771 2.18878 6.4753 2.11678C6.63903 2.03038 6.85876 1.93812 7.13448 1.83998L7.66246 0.367197C7.70189 0.259671 7.77334 0.16682 7.86718 0.101163C7.96101 0.0355049 8.07272 0.000197286 8.18725 0L9.86239 0ZM9.01922 5.61515C7.68566 5.61515 6.6049 6.68314 6.6049 8.00152C6.6049 9.31991 7.68566 10.3887 9.01922 10.3887C10.3528 10.3887 11.4327 9.31991 11.4327 8.00152C11.4327 6.68314 10.3528 5.61515 9.01922 5.61515Z" fill="#424F60"/>
</svg>
