<svg width="30" height="30" viewBox="0 0 30 30" fill="none" xmlns="http://www.w3.org/2000/svg">
<path d="M0 15.0001C0 6.71585 6.71573 0.00012207 15 0.00012207C23.2843 0.00012207 30 6.71585 30 15.0001C30 23.2844 23.2843 30.0001 15 30.0001C6.71573 30.0001 0 23.2844 0 15.0001Z" fill="#4DB45E"/>
<path d="M16.5912 21.191L21.3526 16.3708L23.136 18.1794L18.3746 22.9996L16.5912 21.191ZM19.2832 14.255L16.6754 11.6274C16.5757 11.5287 16.4623 11.4454 16.3389 11.38L15.3967 7.72001C15.3362 7.50701 15.1965 7.32618 15.007 7.21574C14.8175 7.1053 14.5931 7.0739 14.3812 7.12818C14.1693 7.18246 13.9865 7.31816 13.8715 7.50661C13.7564 7.69506 13.7181 7.92149 13.7647 8.13805L14.6564 11.6103L12.6963 7.48114C12.5028 7.05457 11.9981 6.89247 11.5775 7.07163C11.1569 7.27638 10.9802 7.78826 11.1821 8.21483L12.6038 11.2349L9.76884 8.38546C9.44076 8.05274 8.90237 8.05274 8.57429 8.38546C8.24621 8.72671 8.25462 9.26418 8.5827 9.59691L11.7121 12.7535L11.1232 12.9838L10.2147 13.3507L8.60794 14.4768C8.60794 14.4768 7.92654 15.3726 7.86765 15.7565C7.80035 16.1404 8.53223 18.0685 8.53223 18.0685H8.54064C8.67524 18.3586 8.96125 18.5633 9.29775 18.5633C9.52086 18.5633 9.73483 18.4735 9.89259 18.3135C10.0503 18.1535 10.139 17.9365 10.139 17.7102C10.139 17.6249 10.1137 17.5566 10.0885 17.4799L10.1053 17.4713L9.609 15.9954L10.6437 15.1593C11.0391 15.1764 11.8887 15.2447 12.3009 15.2702C14.5975 17.3604 12.4271 18.1794 12.4271 18.1794L9.51647 19.0838L9.37346 19.2032C9.28714 19.2841 9.2197 19.3835 9.17605 19.4942C9.13239 19.6049 9.11362 19.7241 9.12109 19.843L9.13791 20.7559L14.547 20.3293C14.8667 20.3379 15.1695 20.2184 15.4051 19.9881L19.2832 16.0637C19.729 15.603 19.7458 14.7413 19.2832 14.255Z" fill="white"/>
</svg>
