<svg width="30" height="30" viewBox="0 0 30 30" fill="none" xmlns="http://www.w3.org/2000/svg">
<path d="M0 15C0 6.71573 6.71573 0 15 0C23.2843 0 30 6.71573 30 15C30 23.2843 23.2843 30 15 30C6.71573 30 0 23.2843 0 15Z" fill="#4DB45E"/>
<path fill-rule="evenodd" clip-rule="evenodd" d="M8 11.5714H22V9.66667C22 9.48986 21.9263 9.32029 21.795 9.19526C21.6637 9.07024 21.4857 9 21.3 9H8.7C8.51435 9 8.3363 9.07024 8.20503 9.19526C8.07375 9.32029 8 9.48986 8 9.66667V11.5714ZM22 20.3333V13.2857H8V20.3333C8 20.5101 8.07375 20.6797 8.20503 20.8047C8.3363 20.9298 8.51435 21 8.7 21H21.3C21.4857 21 21.6637 20.9298 21.795 20.8047C21.9263 20.6797 22 20.5101 22 20.3333ZM12.1806 16.4358L14.3874 14.1429L15.3498 15.1429L14.1055 16.4358H18.5V17.85H14.1055L15.3498 19.1429L14.3874 20.1429L12.1806 17.85L11.5 17.1429L12.1806 16.4358Z" fill="white"/>
</svg>
