<svg width="59" height="11" viewBox="0 0 59 11" fill="none" xmlns="http://www.w3.org/2000/svg">
<path d="M4.80326 10.2747C3.77056 10.2747 2.89419 10.0567 2.17414 9.62093C1.46357 9.17563 0.923531 8.56454 0.554033 7.78765C0.184535 7.01075 -0.000214074 6.12964 -0.000214074 5.14431C-0.000214074 4.14951 0.184535 3.26366 0.554033 2.48677C0.923531 1.70988 1.4683 1.10352 2.18835 0.667701C2.9084 0.222408 3.78477 -0.00023839 4.81747 -0.00023839C5.85965 -0.00023839 6.73602 0.217671 7.4466 0.653489C8.15717 1.08931 8.69721 1.69566 9.0667 2.47256C9.4362 3.24945 9.62095 4.1353 9.62095 5.1301C9.62095 6.11543 9.4362 6.99654 9.0667 7.77344C8.69721 8.55033 8.15243 9.16142 7.43238 9.60672C6.72181 10.052 5.84544 10.2747 4.80326 10.2747ZM4.81747 8.89614C5.57542 8.89614 6.19599 8.72087 6.67918 8.37032C7.16237 8.01977 7.51765 7.56026 7.74504 6.9918C7.97242 6.42335 8.08611 5.80752 8.08611 5.14431C8.08611 4.64218 8.01979 4.16372 7.88715 3.70896C7.76399 3.25419 7.56976 2.85153 7.30448 2.50098C7.0392 2.15043 6.69813 1.87568 6.28126 1.67672C5.86439 1.47775 5.37646 1.37827 4.81747 1.37827C4.069 1.37827 3.44844 1.55355 2.95577 1.9041C2.47258 2.25465 2.11256 2.71415 1.8757 3.28261C1.63884 3.85107 1.52041 4.47164 1.52041 5.14431C1.52041 5.80752 1.6341 6.42335 1.86149 6.9918C2.09835 7.56026 2.45837 8.01977 2.94156 8.37032C3.43422 8.72087 4.05953 8.89614 4.81747 8.89614ZM13.0376 10.161V3.97897H10.5079V2.67152H17.031V3.97897H14.5014V10.161H13.0376ZM18.048 10.161V2.67152H19.9239L22.2262 6.25281L24.4858 2.67152H26.3333V10.161H24.8695V4.44795L22.4109 8.37032H21.9846L19.5118 4.43374V10.161H18.048ZM31.4208 10.2462C30.6344 10.2462 29.976 10.0852 29.4454 9.76304C28.9148 9.44091 28.5122 8.99562 28.2374 8.42716C27.9721 7.84923 27.8395 7.18603 27.8395 6.43756C27.8395 5.67961 27.9769 5.01167 28.2516 4.43374C28.5359 3.85581 28.9433 3.40104 29.4738 3.06944C30.0139 2.73784 30.6628 2.57204 31.4208 2.57204C31.9798 2.57204 32.4677 2.67625 32.8846 2.88469C33.3109 3.08365 33.6662 3.36314 33.9504 3.72317C34.2441 4.07372 34.4573 4.47164 34.5899 4.91693C34.7226 5.36222 34.7842 5.8312 34.7747 6.32387C34.7652 6.42808 34.7557 6.52756 34.7463 6.62231C34.7463 6.71705 34.7415 6.81653 34.7321 6.92075H29.3175C29.3459 7.29972 29.4407 7.64553 29.6017 7.95818C29.7723 8.27084 30.0091 8.52191 30.3123 8.71139C30.6155 8.8914 30.9897 8.98141 31.435 8.98141C31.6813 8.98141 31.9182 8.95299 32.1456 8.89614C32.3824 8.82982 32.5909 8.73034 32.7709 8.5977C32.9604 8.45559 33.093 8.27557 33.1688 8.05766H34.6468C34.5236 8.5598 34.301 8.97667 33.9789 9.30827C33.6662 9.6304 33.2825 9.86726 32.8277 10.0188C32.3824 10.1704 31.9135 10.2462 31.4208 10.2462ZM29.3459 5.75541H33.3251C33.3157 5.38591 33.2304 5.05904 33.0693 4.77482C32.9083 4.48111 32.6856 4.25373 32.4014 4.09266C32.1172 3.92213 31.7761 3.83686 31.3782 3.83686C30.9423 3.83686 30.5776 3.92686 30.2839 4.10688C29.9996 4.28689 29.777 4.52375 29.6159 4.81745C29.4643 5.10168 29.3743 5.41433 29.3459 5.75541ZM36.2842 10.161V2.67152H37.748V5.82646H41.2014V2.67152H42.6652V10.161H41.2014V7.11971H37.748V10.161H36.2842ZM47.7557 10.2462C46.9693 10.2462 46.3108 10.0852 45.7803 9.76304C45.2497 9.44091 44.847 8.99562 44.5723 8.42716C44.307 7.84923 44.1744 7.18603 44.1744 6.43756C44.1744 5.67961 44.3117 5.01167 44.5865 4.43374C44.8707 3.85581 45.2781 3.40104 45.8087 3.06944C46.3487 2.73784 46.9977 2.57204 47.7557 2.57204C48.3146 2.57204 48.8026 2.67625 49.2194 2.88469C49.6458 3.08365 50.0011 3.36314 50.2853 3.72317C50.579 4.07372 50.7922 4.47164 50.9248 4.91693C51.0574 5.36222 51.119 5.8312 51.1096 6.32387C51.1001 6.42808 51.0906 6.52756 51.0811 6.62231C51.0811 6.71705 51.0764 6.81653 51.0669 6.92075H45.6524C45.6808 7.29972 45.7755 7.64553 45.9366 7.95818C46.1071 8.27084 46.344 8.52191 46.6472 8.71139C46.9503 8.8914 47.3246 8.98141 47.7699 8.98141C48.0162 8.98141 48.2531 8.95299 48.4804 8.89614C48.7173 8.82982 48.9257 8.73034 49.1057 8.5977C49.2952 8.45559 49.4279 8.27557 49.5037 8.05766H50.9817C50.8585 8.5598 50.6358 8.97667 50.3137 9.30827C50.0011 9.6304 49.6174 9.86726 49.1626 10.0188C48.7173 10.1704 48.2483 10.2462 47.7557 10.2462ZM45.6808 5.75541H49.66C49.6505 5.38591 49.5652 5.05904 49.4042 4.77482C49.2431 4.48111 49.0205 4.25373 48.7362 4.09266C48.452 3.92213 48.1109 3.83686 47.713 3.83686C47.2772 3.83686 46.9124 3.92686 46.6187 4.10688C46.3345 4.28689 46.1119 4.52375 45.9508 4.81745C45.7992 5.10168 45.7092 5.41433 45.6808 5.75541ZM52.6191 10.161V2.67152H54.0829V5.82646H57.5363V2.67152H59V10.161H57.5363V7.11971H54.0829V10.161H52.6191Z" fill="black"/>
</svg>
