<svg width="72" height="13" viewBox="0 0 72 13" fill="none" xmlns="http://www.w3.org/2000/svg">
<path d="M-0.000114447 12.6897V8.62969C0.358259 8.62969 0.627038 8.55424 0.806225 8.40335C0.985411 8.25245 1.11744 8.05912 1.20232 7.82335C1.2872 7.59701 1.35322 7.33766 1.40037 7.0453C1.45695 6.75294 1.50411 6.44644 1.54183 6.12579C1.57956 5.80514 1.60785 5.48449 1.62671 5.16384C1.6833 4.28677 1.72102 3.41913 1.73988 2.56092C1.76817 1.70271 1.78704 0.84922 1.79647 0.000441829H8.41694V8.62969H9.61937V12.6897H8.11986V10.0019H1.49939V12.6897H-0.000114447ZM2.54622 8.62969H6.91743V1.37263H3.22524L3.11207 5.00823C3.10264 5.22514 3.08849 5.47978 3.06963 5.77213C3.0602 6.06449 3.03663 6.37571 2.9989 6.70579C2.96118 7.02644 2.90459 7.35652 2.82915 7.69603C2.76313 8.02611 2.66882 8.33733 2.54622 8.62969ZM14.1005 10.0868C13.3272 10.0868 12.6718 9.93115 12.1342 9.61993C11.5966 9.29928 11.1864 8.85131 10.9035 8.27603C10.63 7.70075 10.4932 7.03587 10.4932 6.2814C10.4932 5.5175 10.63 4.85262 10.9035 4.28677C11.1864 3.71149 11.5966 3.26352 12.1342 2.94287C12.6718 2.61279 13.3319 2.44775 14.1147 2.44775C14.888 2.44775 15.5435 2.61279 16.081 2.94287C16.6186 3.26352 17.0241 3.71149 17.2976 4.28677C17.5711 4.86205 17.7079 5.53165 17.7079 6.29555C17.7079 7.04058 17.5664 7.70075 17.2835 8.27603C17.01 8.85131 16.6044 9.29928 16.0669 9.61993C15.5388 9.93115 14.8833 10.0868 14.1005 10.0868ZM14.1005 8.7853C14.6098 8.7853 15.0201 8.67213 15.3313 8.44578C15.6519 8.21944 15.8877 7.91766 16.0386 7.54042C16.1895 7.16319 16.2649 6.74823 16.2649 6.29555C16.2649 5.84286 16.1895 5.42791 16.0386 5.05067C15.8877 4.66401 15.6519 4.3575 15.3313 4.13116C15.0201 3.89539 14.6098 3.7775 14.1005 3.7775C13.6007 3.7775 13.1905 3.89539 12.8698 4.13116C12.5492 4.3575 12.3134 4.65929 12.1625 5.03653C12.021 5.41376 11.9503 5.83343 11.9503 6.29555C11.9503 6.74823 12.021 7.16319 12.1625 7.54042C12.3134 7.91766 12.5492 8.21944 12.8698 8.44578C13.1905 8.67213 13.6007 8.7853 14.1005 8.7853ZM22.4427 10.0868C21.6599 10.0868 21.0045 9.92643 20.4763 9.60578C19.9576 9.28513 19.5662 8.84188 19.3022 8.27603C19.0475 7.70075 18.9202 7.04058 18.9202 6.29555C18.9202 5.55994 19.0523 4.90449 19.3163 4.32921C19.5898 3.7445 19.9954 3.2871 20.5329 2.95702C21.0799 2.61751 21.7542 2.44775 22.5558 2.44775C23.1028 2.44775 23.5885 2.54206 24.0129 2.73068C24.4373 2.90986 24.7815 3.17864 25.0456 3.53702C25.3191 3.88596 25.4983 4.32449 25.5831 4.85262H24.1261C24.0035 4.46596 23.796 4.18775 23.5036 4.01799C23.2207 3.84824 22.8859 3.76336 22.4992 3.76336C21.9805 3.76336 21.5656 3.88596 21.2544 4.13116C20.9432 4.37636 20.7168 4.6923 20.5754 5.07896C20.4433 5.46563 20.3773 5.87116 20.3773 6.29555C20.3773 6.7388 20.448 7.14904 20.5895 7.52627C20.7404 7.90351 20.9667 8.21001 21.2685 8.44578C21.5797 8.67213 21.9853 8.7853 22.4851 8.7853C22.8623 8.7853 23.2113 8.70513 23.5319 8.54481C23.8526 8.37505 24.0601 8.09213 24.1544 7.69603H25.6539C25.569 8.24302 25.3709 8.6957 25.0597 9.05408C24.7485 9.40302 24.3618 9.66237 23.8997 9.83212C23.447 10.0019 22.9614 10.0868 22.4427 10.0868ZM28.8179 10.0019V3.84824H26.2999V2.54678H32.793V3.84824H30.275V10.0019H28.8179ZM36.1536 10.0868C35.8236 10.0868 35.5029 10.0443 35.1917 9.95944C34.8805 9.86513 34.6023 9.72838 34.3571 9.5492C34.1119 9.36058 33.9138 9.12952 33.7629 8.85603C33.6214 8.5731 33.5507 8.24302 33.5507 7.86579C33.5507 7.4131 33.6356 7.04058 33.8053 6.74823C33.9845 6.44644 34.2203 6.21538 34.5127 6.05506C34.805 5.8853 35.1398 5.76742 35.5171 5.7014C35.9037 5.62595 36.3045 5.58823 36.7195 5.58823H38.5444C38.5444 5.22043 38.4878 4.89978 38.3746 4.62628C38.2614 4.34336 38.0822 4.12645 37.837 3.97555C37.6013 3.81523 37.2853 3.73507 36.8892 3.73507C36.6535 3.73507 36.4271 3.76336 36.2102 3.81994C36.0027 3.8671 35.8236 3.94726 35.6727 4.06043C35.5218 4.1736 35.418 4.32449 35.3614 4.51311H33.8336C33.8902 4.15474 34.0175 3.84824 34.2156 3.5936C34.4136 3.32954 34.6588 3.11263 34.9512 2.94287C35.2436 2.77312 35.5548 2.65052 35.8849 2.57507C36.2244 2.49019 36.5686 2.44775 36.9175 2.44775C37.6343 2.44775 38.2143 2.58921 38.6575 2.87214C39.1102 3.15507 39.4403 3.56059 39.6478 4.08872C39.8552 4.61685 39.959 5.244 39.959 5.97018V10.0019H38.7L38.6434 9.08237C38.4265 9.35586 38.1766 9.56806 37.8936 9.71895C37.6201 9.86041 37.3325 9.95472 37.0307 10.0019C36.7289 10.0585 36.4366 10.0868 36.1536 10.0868ZM36.4083 8.85603C36.8421 8.85603 37.2193 8.7853 37.54 8.64383C37.8606 8.49294 38.1058 8.28074 38.2756 8.00725C38.4548 7.72432 38.5444 7.38953 38.5444 7.00286V6.70579H37.2146C36.9411 6.70579 36.6723 6.71522 36.4083 6.73408C36.1442 6.74351 35.9037 6.78124 35.6868 6.84725C35.4793 6.90384 35.3143 7.00286 35.1917 7.14432C35.0691 7.28579 35.0078 7.48855 35.0078 7.75262C35.0078 8.00725 35.0738 8.21473 35.2058 8.37505C35.3379 8.53538 35.5123 8.65798 35.7292 8.74286C35.9462 8.8183 36.1725 8.85603 36.4083 8.85603ZM41.7074 10.0019V2.54678H44.8479C45.1685 2.54678 45.4892 2.57035 45.8098 2.61751C46.1399 2.65523 46.437 2.74011 46.701 2.87214C46.9745 3.00417 47.1914 3.19751 47.3518 3.45214C47.5215 3.69734 47.6064 4.02271 47.6064 4.42823C47.6064 4.67344 47.5687 4.89506 47.4932 5.09311C47.4178 5.29116 47.3093 5.46563 47.1679 5.61652C47.0358 5.75799 46.8661 5.88059 46.6586 5.98433C47.1301 6.10693 47.4696 6.32855 47.6771 6.6492C47.894 6.96042 48.0025 7.33294 48.0025 7.76676C48.0025 8.16286 47.927 8.50237 47.7761 8.7853C47.6253 9.06822 47.4225 9.29928 47.1679 9.47846C46.9132 9.65765 46.6256 9.78968 46.3049 9.87456C45.9843 9.95944 45.6542 10.0019 45.3147 10.0019H41.7074ZM43.1927 8.72871H45.0601C45.3241 8.72871 45.5646 8.70513 45.7815 8.65798C46.0079 8.60139 46.187 8.50237 46.3191 8.36091C46.4605 8.21944 46.5313 8.02611 46.5313 7.78091C46.5313 7.52627 46.4747 7.33294 46.3615 7.20091C46.2483 7.05945 46.1022 6.96042 45.923 6.90384C45.7438 6.84725 45.5505 6.81424 45.343 6.80481C45.1355 6.78595 44.9327 6.77652 44.7347 6.77652H43.1927V8.72871ZM43.1927 5.67311H44.2962C44.4659 5.67311 44.6592 5.66368 44.8762 5.64482C45.0931 5.61652 45.3005 5.56937 45.4986 5.50335C45.7061 5.43734 45.8711 5.34303 45.9937 5.22043C46.1257 5.08839 46.1918 4.90921 46.1918 4.68287C46.1918 4.38108 46.1069 4.1736 45.9371 4.06043C45.7768 3.93783 45.5835 3.8671 45.3571 3.84824C45.1308 3.81994 44.9092 3.8058 44.6923 3.8058H43.1927V5.67311ZM48.8758 10.016V8.71456C49.0738 8.71456 49.2436 8.67213 49.3851 8.58725C49.536 8.49294 49.668 8.36091 49.7812 8.19115C49.9038 8.00253 49.9981 7.73847 50.0641 7.39896C50.1301 7.05945 50.1773 6.70579 50.2056 6.33799C50.2433 5.89473 50.2669 5.4562 50.2763 5.02238C50.2951 4.58856 50.3093 4.16417 50.3187 3.74921C50.3376 3.33425 50.347 2.93344 50.347 2.54678H55.7368V10.0019H54.2797V3.84824H51.7334C51.7239 4.15945 51.7098 4.48482 51.6909 4.82433C51.6815 5.16384 51.6673 5.50335 51.6485 5.84286C51.6296 6.17295 51.606 6.50303 51.5777 6.83311C51.5589 7.21034 51.507 7.61115 51.4221 8.03554C51.3467 8.45993 51.2005 8.84188 50.9836 9.18139C50.7667 9.51147 50.4979 9.7331 50.1773 9.84627C49.866 9.95944 49.4322 10.016 48.8758 10.016ZM60.8072 10.0868C60.0245 10.0868 59.369 9.92643 58.8409 9.60578C58.3127 9.28513 57.9119 8.84188 57.6384 8.27603C57.3744 7.70075 57.2423 7.04058 57.2423 6.29555C57.2423 5.54108 57.3791 4.8762 57.6526 4.30092C57.9355 3.72563 58.341 3.27295 58.8692 2.94287C59.4067 2.61279 60.0527 2.44775 60.8072 2.44775C61.3636 2.44775 61.8493 2.55149 62.2643 2.75897C62.6887 2.95702 63.0423 3.23523 63.3253 3.5936C63.6176 3.94254 63.8298 4.33864 63.9618 4.78189C64.0939 5.22514 64.1552 5.69197 64.1457 6.18238C64.1363 6.28612 64.1269 6.38514 64.1174 6.47945C64.1174 6.57376 64.1127 6.67278 64.1033 6.77652H58.7136C58.7419 7.15376 58.8362 7.49798 58.9965 7.8092C59.1662 8.12042 59.402 8.37034 59.7038 8.55895C60.0056 8.73814 60.3781 8.82773 60.8214 8.82773C61.0666 8.82773 61.3023 8.79944 61.5287 8.74286C61.7644 8.67684 61.9719 8.57782 62.1511 8.44578C62.3397 8.30432 62.4718 8.12513 62.5472 7.90822H64.0184C63.8958 8.40806 63.6742 8.82302 63.3535 9.1531C63.0423 9.47375 62.6604 9.70952 62.2077 9.86041C61.7644 10.0113 61.2976 10.0868 60.8072 10.0868ZM58.7419 5.61652H62.7028C62.6934 5.24872 62.6085 4.92336 62.4482 4.64043C62.2879 4.34807 62.0662 4.12173 61.7833 3.96141C61.5004 3.79165 61.1609 3.70677 60.7648 3.70677C60.331 3.70677 59.9679 3.79637 59.6755 3.97555C59.3926 4.15474 59.171 4.39051 59.0106 4.68287C58.8597 4.96579 58.7701 5.27701 58.7419 5.61652ZM65.6483 10.0019V2.54678H67.1054V5.68726H70.543V2.54678H72V10.0019H70.543V6.97457H67.1054V10.0019H65.6483Z" fill="white"/>
</svg>
