<svg width="12" height="16" viewBox="0 0 12 16" fill="none" xmlns="http://www.w3.org/2000/svg">
<path d="M0.00255283 7.9973C0.00255283 5.41453 0.00255283 2.83143 0.00255283 0.248655C0.00255283 0.000952694 0.00351015 0 0.255603 0C2.81929 0 5.38265 0 7.94634 0C8.17737 0 8.17833 0.000635134 8.17833 0.237223C8.17864 1.36236 8.18152 2.48751 8.17545 3.61233C8.1745 3.76762 8.22268 3.80763 8.37394 3.80668C9.50963 3.80096 10.6456 3.80319 11.7813 3.80319C11.9993 3.80319 12.0002 3.80414 12.0002 4.02167C12.0002 7.94077 12.0002 11.8599 12.0002 15.779C12.0002 15.9952 11.9993 15.9962 11.7807 15.9962C7.92208 15.9962 4.06347 15.9956 0.204865 16C0.0414836 16 0 15.9505 0 15.7929C0.00446746 13.1943 0.00319104 10.5956 0.00319104 7.99667H0.00255283V7.9973ZM7.91251 9.00177C8.57593 9.00177 9.23935 8.99923 9.90276 9.00399C10.0253 9.00494 10.0728 8.97128 10.0693 8.84267C10.0614 8.53113 10.0623 8.21928 10.0687 7.90775C10.0713 7.78834 10.0272 7.75373 9.91106 7.75404C8.5788 7.75722 7.24654 7.75785 5.91428 7.75404C5.78089 7.75373 5.75377 7.80644 5.75568 7.92362C5.76111 8.22468 5.7643 8.52605 5.75409 8.82679C5.7493 8.97001 5.80068 9.00526 5.93726 9.00399C6.59525 8.99796 7.25356 9.00113 7.91155 9.00177H7.91251ZM7.91251 10.292C7.24909 10.292 6.58568 10.2946 5.92226 10.2898C5.79908 10.2889 5.75281 10.3244 5.756 10.4521C5.76366 10.7636 5.76271 11.0755 5.756 11.387C5.75345 11.5083 5.801 11.5391 5.91524 11.5388C7.2475 11.5363 8.57976 11.5363 9.91202 11.5394C10.0282 11.5394 10.0719 11.5048 10.0697 11.3857C10.0633 11.0796 10.0604 10.7728 10.0703 10.4667C10.0751 10.3235 10.024 10.2879 9.88713 10.2892C9.22914 10.2952 8.57082 10.292 7.91283 10.2924L7.91251 10.292ZM7.91251 14.073C8.57593 14.073 9.23935 14.0705 9.90276 14.0752C10.0253 14.0762 10.0728 14.0425 10.0693 13.9139C10.0614 13.6024 10.0623 13.2905 10.0687 12.979C10.0713 12.8596 10.0272 12.825 9.91106 12.8253C8.5788 12.8285 7.24654 12.8291 5.91428 12.8253C5.78089 12.825 5.75377 12.8777 5.75568 12.9949C5.76111 13.2959 5.7643 13.5973 5.75409 13.898C5.7493 14.0412 5.80068 14.0765 5.93726 14.0752C6.59525 14.0692 7.25356 14.0724 7.91155 14.073H7.91251ZM3.19264 9.00177C3.56408 9.00177 3.93583 8.99827 4.30727 9.00367C4.4247 9.00558 4.4665 8.96747 4.46395 8.84902C4.45757 8.53208 4.45789 8.21515 4.46331 7.89854C4.46523 7.78517 4.42023 7.75404 4.3127 7.75436C3.56982 7.75754 2.82663 7.75785 2.08375 7.755C1.97398 7.75468 1.93345 7.79056 1.93505 7.9014C1.94015 8.21293 1.94239 8.52478 1.93345 8.836C1.92962 8.97319 1.98323 9.00558 2.10992 9.00336C2.47082 8.997 2.83173 9.00113 3.19264 9.00145V9.00177ZM3.19902 10.2917V10.2924C2.82758 10.2924 2.45583 10.2952 2.08439 10.2908C1.97557 10.2895 1.93313 10.3248 1.93473 10.4365C1.93984 10.7585 1.9392 11.0809 1.93473 11.4029C1.93313 11.509 1.97717 11.5385 2.07737 11.5382C2.82567 11.5356 3.57397 11.536 4.32227 11.5388C4.42374 11.5391 4.46459 11.5058 4.46331 11.4016C4.45884 11.0796 4.45789 10.7573 4.46331 10.4353C4.46523 10.3228 4.42215 10.2889 4.31365 10.2901C3.94221 10.2946 3.57078 10.2917 3.19902 10.2917ZM3.19647 14.0724V14.073C3.56791 14.073 3.93966 14.0705 4.3111 14.0746C4.41609 14.0759 4.46587 14.0482 4.46395 13.9326C4.45821 13.6106 4.45916 13.2883 4.46299 12.9663C4.46427 12.865 4.42981 12.8256 4.32514 12.8262C3.57684 12.8291 2.82854 12.8297 2.08024 12.8262C1.96632 12.8256 1.93377 12.8697 1.93537 12.9764C1.93984 13.2934 1.94015 13.6103 1.93473 13.9272C1.93282 14.0371 1.97111 14.0759 2.08216 14.0746C2.45359 14.0698 2.82503 14.0727 3.19679 14.0727L3.19647 14.0724Z" fill="#4DB45E"/>
</svg>
