<svg width="88" height="10" viewBox="0 0 88 10" fill="none" xmlns="http://www.w3.org/2000/svg">
<path d="M5.09024e-05 9.91587V0.00043803H3.77268C4.24952 0.00043803 4.68429 0.042512 5.07698 0.12666C5.47902 0.201458 5.82496 0.337029 6.1148 0.533375C6.40464 0.72037 6.62436 0.977489 6.77396 1.30473C6.9329 1.62262 7.01238 2.02466 7.01238 2.51085C7.01238 2.98769 6.90486 3.41778 6.68981 3.80112C6.47477 4.17511 6.14752 4.4556 5.70808 4.6426C6.29712 4.77349 6.74123 5.04931 7.04043 5.47005C7.34897 5.88144 7.50324 6.41438 7.50324 7.06886C7.50324 7.6205 7.40039 8.08331 7.1947 8.4573C6.989 8.82194 6.70384 9.11179 6.33919 9.32683C5.97455 9.54188 5.55381 9.69615 5.07698 9.78965C4.60949 9.87379 4.10927 9.91587 3.57634 9.91587H5.09024e-05ZM1.48666 8.55548H3.60439C3.88488 8.55548 4.16537 8.54145 4.44587 8.5134C4.72636 8.476 4.98348 8.40588 5.21722 8.30303C5.46032 8.20019 5.65199 8.04591 5.79223 7.84022C5.94183 7.63452 6.01663 7.35871 6.01663 7.01276C6.01663 6.72292 5.96053 6.4845 5.84833 6.29751C5.73613 6.10116 5.58654 5.94689 5.39954 5.83469C5.21255 5.7225 4.99283 5.64302 4.74038 5.59627C4.49729 5.54953 4.24485 5.52615 3.98305 5.52615H1.48666V8.55548ZM1.48666 4.24991H3.36597C3.68386 4.24991 3.9737 4.22186 4.2355 4.16576C4.50664 4.10966 4.74038 4.01616 4.93673 3.88527C5.13307 3.75437 5.28267 3.59075 5.38552 3.3944C5.49771 3.19806 5.55381 2.95496 5.55381 2.66512C5.55381 2.28178 5.46967 2.00129 5.30137 1.82364C5.13307 1.63665 4.904 1.51043 4.61416 1.44498C4.33367 1.37953 4.02045 1.3468 3.67451 1.3468H1.48666V4.24991ZM9.01944 9.91587V2.52488H10.492V5.18956H11.7402C12.1797 5.18956 12.577 5.22696 12.9323 5.30176C13.2876 5.37655 13.5915 5.50278 13.8439 5.68042C14.1057 5.84872 14.3067 6.08246 14.447 6.38166C14.5872 6.6715 14.6573 7.04081 14.6573 7.4896C14.6573 7.91969 14.5779 8.29368 14.4189 8.61158C14.2693 8.92012 14.059 9.17256 13.7878 9.36891C13.5167 9.5559 13.1988 9.69615 12.8341 9.78965C12.4789 9.87379 12.0955 9.91587 11.6841 9.91587H9.01944ZM10.492 8.65365H10.9408C11.24 8.65365 11.5205 8.6443 11.7823 8.6256C12.0534 8.6069 12.2919 8.56483 12.4976 8.49938C12.7126 8.43393 12.8809 8.32641 13.0024 8.17681C13.1333 8.01786 13.1988 7.80282 13.1988 7.53168C13.1988 7.27923 13.1474 7.08289 13.0445 6.94264C12.951 6.79304 12.8201 6.68085 12.6518 6.60605C12.4929 6.53125 12.3152 6.4845 12.1189 6.4658C11.9225 6.4471 11.7262 6.43775 11.5298 6.43775H10.492V8.65365ZM15.6391 9.91587V2.52488H17.0836V9.91587H15.6391ZM18.8531 9.91587V2.52488H25.1782V9.91587H23.7337V3.81514H20.2977V9.91587H18.8531ZM30.2432 10C29.4765 10 28.8267 9.84574 28.2938 9.5372C27.7609 9.21931 27.3541 8.7752 27.0737 8.20486C26.8025 7.63452 26.6669 6.97537 26.6669 6.22738C26.6669 5.47005 26.8025 4.81089 27.0737 4.24991C27.3541 3.67957 27.7609 3.23546 28.2938 2.91757C28.8267 2.59032 29.4812 2.4267 30.2573 2.4267C31.0239 2.4267 31.6737 2.59032 32.2067 2.91757C32.7396 3.23546 33.1417 3.67957 33.4128 4.24991C33.6839 4.82024 33.8195 5.48408 33.8195 6.24141C33.8195 6.98004 33.6793 7.63452 33.3988 8.20486C33.1276 8.7752 32.7256 9.21931 32.1927 9.5372C31.6691 9.84574 31.0193 10 30.2432 10ZM30.2432 8.70975C30.7481 8.70975 31.1548 8.59755 31.4634 8.37316C31.7813 8.14876 32.015 7.84957 32.1646 7.47558C32.3142 7.10159 32.389 6.6902 32.389 6.24141C32.389 5.79262 32.3142 5.38123 32.1646 5.00724C32.015 4.6239 31.7813 4.32003 31.4634 4.09564C31.1548 3.86189 30.7481 3.74502 30.2432 3.74502C29.7477 3.74502 29.341 3.86189 29.0231 4.09564C28.7052 4.32003 28.4714 4.61922 28.3219 4.99321C28.1816 5.36721 28.1115 5.78327 28.1115 6.24141C28.1115 6.6902 28.1816 7.10159 28.3219 7.47558C28.4714 7.84957 28.7052 8.14876 29.0231 8.37316C29.341 8.59755 29.7477 8.70975 30.2432 8.70975ZM34.5884 9.92989V8.63962C34.7847 8.63962 34.953 8.59755 35.0932 8.5134C35.2428 8.4199 35.3737 8.28901 35.4859 8.12071C35.6075 7.93372 35.701 7.67192 35.7664 7.33533C35.8319 6.99874 35.8786 6.64812 35.9067 6.28348C35.9441 5.84404 35.9674 5.40928 35.9768 4.97919C35.9955 4.5491 36.0095 4.12836 36.0189 3.71697C36.0376 3.30558 36.0469 2.90822 36.0469 2.52488H41.3903V9.91587H39.9458V3.81514H37.4213C37.412 4.12369 37.398 4.44625 37.3793 4.78284C37.3699 5.11944 37.3559 5.45603 37.3372 5.79262C37.3185 6.11986 37.2951 6.4471 37.2671 6.77435C37.2484 7.14834 37.1969 7.5457 37.1128 7.96644C37.038 8.38718 36.8931 8.76585 36.678 9.10244C36.463 9.42968 36.1965 9.6494 35.8786 9.7616C35.5701 9.87379 35.14 9.92989 34.5884 9.92989ZM43.1634 9.91587V2.52488H44.608V5.63835H48.016V2.52488H49.4605V9.91587H48.016V6.91459H44.608V9.91587H43.1634ZM50.7675 9.91587L52.717 7.05484C52.2027 6.90524 51.7913 6.6528 51.4828 6.29751C51.1836 5.94222 51.034 5.48875 51.034 4.93712C51.034 4.46963 51.1041 4.08161 51.2444 3.77307C51.3846 3.46453 51.5856 3.22143 51.8474 3.04379C52.1092 2.85679 52.4178 2.7259 52.7731 2.6511C53.1377 2.56695 53.5397 2.52488 53.9792 2.52488H57.1207V9.91587H55.6762V7.29326H54.1755L52.4645 9.91587H50.7675ZM54.7365 6.07311H55.6762V3.78709H54.1475C53.895 3.78709 53.666 3.80112 53.4603 3.82917C53.2639 3.85722 53.091 3.91332 52.9414 3.99746C52.8011 4.07226 52.6889 4.18446 52.6048 4.33406C52.53 4.4743 52.4926 4.66597 52.4926 4.90907C52.4926 5.18021 52.558 5.39525 52.6889 5.5542C52.8292 5.7038 53.0068 5.81599 53.2219 5.89079C53.4369 5.96559 53.6753 6.01701 53.9371 6.04506C54.2083 6.06376 54.4747 6.07311 54.7365 6.07311ZM62.1538 10C61.3778 10 60.728 9.84107 60.2044 9.52318C59.6808 9.20529 59.2834 8.76585 59.0123 8.20486C58.7505 7.63452 58.6196 6.98004 58.6196 6.24141C58.6196 5.49343 58.7552 4.83427 59.0263 4.26393C59.3068 3.6936 59.7088 3.24481 60.2324 2.91757C60.7654 2.59032 61.4058 2.4267 62.1538 2.4267C62.7054 2.4267 63.187 2.52955 63.5983 2.73525C64.0191 2.93159 64.3697 3.20741 64.6502 3.5627C64.94 3.90864 65.1504 4.30133 65.2813 4.74077C65.4122 5.18021 65.473 5.64302 65.4636 6.12921C65.4543 6.23206 65.4449 6.33023 65.4356 6.42373C65.4356 6.51723 65.4309 6.6154 65.4215 6.71825H60.0782C60.1062 7.09224 60.1997 7.4335 60.3587 7.74205C60.5269 8.05059 60.7607 8.29836 61.0599 8.48535C61.3591 8.663 61.7284 8.75182 62.1678 8.75182C62.4109 8.75182 62.6447 8.72377 62.8691 8.66767C63.1028 8.60223 63.3085 8.50405 63.4861 8.37316C63.6731 8.23291 63.804 8.05526 63.8788 7.84022H65.3374C65.2159 8.33576 64.9961 8.74715 64.6782 9.07439C64.3697 9.39228 63.991 9.62602 63.5422 9.77562C63.1028 9.92522 62.64 10 62.1538 10ZM60.1062 5.56823H64.0331C64.0238 5.20358 63.9396 4.88102 63.7807 4.60052C63.6217 4.31068 63.402 4.08629 63.1215 3.92734C62.841 3.75904 62.5044 3.6749 62.1117 3.6749C61.6816 3.6749 61.3217 3.76372 61.0318 3.94137C60.7513 4.11901 60.5316 4.35276 60.3727 4.6426C60.2231 4.92309 60.1343 5.23163 60.1062 5.56823ZM68.6924 9.91587V3.81514H66.196V2.52488H72.6333V3.81514H70.1369V9.91587H68.6924ZM76.8486 10C76.0725 10 75.4227 9.84107 74.8991 9.52318C74.3849 9.20529 73.9969 8.76585 73.7351 8.20486C73.4827 7.63452 73.3564 6.98004 73.3564 6.24141C73.3564 5.51213 73.4873 4.86232 73.7491 4.29198C74.0203 3.7123 74.4223 3.25883 74.9552 2.93159C75.4975 2.595 76.166 2.4267 76.9608 2.4267C77.5031 2.4267 77.9846 2.5202 78.4053 2.7072C78.826 2.88484 79.1673 3.15131 79.4291 3.5066C79.7003 3.85254 79.8779 4.28731 79.962 4.81089H78.5175C78.396 4.42755 78.1903 4.15174 77.9004 3.98344C77.6199 3.81514 77.288 3.731 76.9047 3.731C76.3904 3.731 75.979 3.85254 75.6705 4.09564C75.362 4.33873 75.1376 4.65195 74.9973 5.03529C74.8664 5.41863 74.801 5.82067 74.801 6.24141C74.801 6.68085 74.8711 7.08756 75.0113 7.46155C75.1609 7.83554 75.3853 8.13941 75.6845 8.37316C75.9931 8.59755 76.3951 8.70975 76.8906 8.70975C77.2646 8.70975 77.6106 8.63027 77.9285 8.47133C78.2464 8.30303 78.4521 8.02254 78.5456 7.62985H80.0322C79.948 8.17214 79.7517 8.62092 79.4431 8.97622C79.1346 9.32216 78.7513 9.57928 78.2931 9.74757C77.8443 9.91587 77.3628 10 76.8486 10ZM80.9671 9.91587L82.9165 7.05484C82.4023 6.90524 81.9909 6.6528 81.6824 6.29751C81.3832 5.94222 81.2336 5.48875 81.2336 4.93712C81.2336 4.46963 81.3037 4.08161 81.4439 3.77307C81.5842 3.46453 81.7852 3.22143 82.047 3.04379C82.3088 2.85679 82.6173 2.7259 82.9726 2.6511C83.3373 2.56695 83.7393 2.52488 84.1788 2.52488H87.3203V9.91587H85.8757V7.29326H84.3751L82.6641 9.91587H80.9671ZM84.9361 6.07311H85.8757V3.78709H84.3471C84.0946 3.78709 83.8655 3.80112 83.6598 3.82917C83.4635 3.85722 83.2905 3.91332 83.1409 3.99746C83.0007 4.07226 82.8885 4.18446 82.8043 4.33406C82.7295 4.4743 82.6921 4.66597 82.6921 4.90907C82.6921 5.18021 82.7576 5.39525 82.8885 5.5542C83.0287 5.7038 83.2064 5.81599 83.4214 5.89079C83.6365 5.96559 83.8749 6.01701 84.1367 6.04506C84.4078 6.06376 84.6743 6.07311 84.9361 6.07311Z" fill="white"/>
</svg>
