<svg width="237" height="44" viewBox="0 0 237 44" fill="none" xmlns="http://www.w3.org/2000/svg">
<path d="M120.76 25.8224V20.1753H98.5078V25.8224L120.76 25.8224Z" fill="white"/>
<path d="M93.7471 15.8129C95.3065 15.8129 96.5706 14.5488 96.5706 12.9894C96.5706 11.43 95.3065 10.1659 93.7471 10.1659L77.1418 10.1659C75.5824 10.1659 74.3183 11.43 74.3183 12.9894C74.3183 14.5488 75.5824 15.8129 77.1418 15.8129L93.7471 15.8129Z" fill="white"/>
<path d="M113.701 29.8887C112.379 30.8813 110.736 31.4715 108.957 31.4715C104.591 31.4715 101.05 27.9306 101.05 23.564C101.05 19.1974 104.591 15.6565 108.957 15.6565C113.324 15.6565 116.865 19.1974 116.865 23.564C116.865 24.3502 116.748 25.1071 116.535 25.8224H122.324C122.447 25.0884 122.512 24.3335 122.512 23.564C122.512 16.0777 116.444 10.0095 108.957 10.0095C101.471 10.0095 95.4028 16.0777 95.4028 23.564C95.4028 31.0502 101.471 37.1185 108.957 37.1185C112.794 37.1185 116.258 35.5232 118.725 32.9604L113.701 29.8887Z" fill="white"/>
<path d="M129.71 9.99696H129.708C127.961 9.99696 126.545 11.4133 126.545 13.1604V33.9551C126.545 35.7022 127.961 37.1185 129.708 37.1185H129.71C131.457 37.1185 132.874 35.7022 132.874 33.9551V13.1604C132.874 11.4133 131.457 9.99696 129.71 9.99696Z" fill="white"/>
<path d="M147.429 31.7175L134.844 19.1327L130.369 23.6078L142.954 36.1926C143.548 36.7869 144.353 37.1185 145.192 37.1185C148.011 37.1185 149.423 33.7111 147.429 31.7175Z" fill="white"/>
<path d="M147.429 15.5105L135.034 27.9056L130.559 23.4305L142.954 11.0354C143.548 10.4411 144.353 10.1096 145.192 10.1096C148.011 10.1096 149.423 13.5169 147.429 15.5105Z" fill="white"/>
<path d="M162.345 31.7175L149.761 19.1327L145.285 23.6078L157.87 36.1926C158.465 36.7869 159.27 37.1185 160.108 37.1185C162.927 37.1185 164.339 33.7111 162.345 31.7175Z" fill="#F12F37"/>
<path d="M162.345 15.5105L149.742 28.1141L145.267 23.639L157.87 11.0354C158.465 10.4411 159.27 10.1096 160.108 10.1096C162.927 10.1096 164.339 13.5169 162.345 15.5105Z" fill="#F12F37"/>
<path d="M3.16341 44C1.41592 44 0 42.5841 0 40.8366V9.99696L6.32891 12.4993V40.8366C6.32891 42.5841 4.91298 44 3.1655 44H3.16341Z" fill="white"/>
<path d="M85.4789 37.1185C83.7314 37.1185 82.3154 35.7026 82.3154 33.9551V0L88.6444 2.50237V33.9551C88.6444 35.7026 87.2284 37.1185 85.4809 37.1185H85.4789Z" fill="white"/>
<path d="M33.6673 37.1185C31.9198 37.1185 30.5039 35.7026 30.5039 33.9551V9.99696L36.8328 12.4993V33.9551C36.8328 35.7026 35.4169 37.1185 33.6694 37.1185H33.6673Z" fill="white"/>
<path d="M44.7987 9.997C37.3082 9.997 31.2379 16.0694 31.2379 23.5578H36.8891C36.8891 19.189 40.43 15.6461 44.8008 15.6461C45.3888 15.6461 45.9602 15.7128 46.5107 15.8338C47.3261 14.0258 48.4167 12.3701 49.7325 10.9208C48.204 10.3244 46.542 9.99492 44.8008 9.99492L44.7987 9.997Z" fill="white"/>
<path d="M61.4999 9.99696C54.0095 9.99696 47.9391 16.0694 47.9391 23.5577C47.9391 31.0461 54.0116 37.1185 61.4999 37.1185C68.9882 37.1185 75.0607 31.0461 75.0607 23.5577C75.0607 16.0694 68.9882 9.99696 61.4999 9.99696ZM61.4999 31.4694C57.1312 31.4694 53.5882 27.9285 53.5882 23.5577C53.5882 19.1869 57.1291 15.6461 61.4999 15.6461C65.8707 15.6461 69.4116 19.1869 69.4116 23.5577C69.4116 27.9285 65.8707 31.4694 61.4999 31.4694Z" fill="white"/>
<path d="M14.1634 9.99696C6.67299 9.99696 0.60057 16.0673 0.60057 23.5577C0.60057 31.0481 6.67299 37.1185 14.1613 37.1185C21.6497 37.1185 27.7221 31.0461 27.7221 23.5577C27.7221 16.0694 21.6518 9.99696 14.1634 9.99696ZM14.1634 31.4694C9.79469 31.4694 6.25175 27.9285 6.25175 23.5577C6.25175 19.1869 9.79261 15.6461 14.1634 15.6461C18.5342 15.6461 22.0751 19.1869 22.0751 23.5577C22.0751 27.9285 18.5342 31.4694 14.1634 31.4694Z" fill="white"/>
<rect x="169.953" y="10.0095" width="66.8629" height="27.3995" rx="8" fill="#F12F37"/>
<path d="M175.945 30.7861L181.549 16.7494H184.991L190.534 30.7861H187.032L186.252 28.6053H180.228L179.427 30.7861H175.945ZM181.248 25.6909H185.231L183.27 20.2586L181.248 25.6909Z" fill="white"/>
<path d="M191.887 30.7861V16.7494H198.512C199.139 16.7494 199.713 16.8155 200.233 16.9476C200.767 17.0666 201.227 17.2715 201.614 17.5622C202.014 17.8398 202.328 18.2165 202.554 18.6923C202.781 19.1549 202.895 19.7431 202.895 20.4568C202.895 20.9987 202.768 21.5142 202.514 22.0032C202.261 22.4923 201.901 22.869 201.434 23.1333C202.061 23.3712 202.561 23.7677 202.935 24.3229C203.322 24.8648 203.515 25.5719 203.515 26.4442C203.515 27.3034 203.355 28.0171 203.035 28.5854C202.728 29.1406 202.301 29.5833 201.754 29.9138C201.22 30.231 200.606 30.4557 199.913 30.5878C199.219 30.72 198.492 30.7861 197.731 30.7861H191.887ZM195.13 27.832H198.051C198.385 27.832 198.685 27.8056 198.952 27.7527C199.232 27.6867 199.466 27.6007 199.653 27.495C199.853 27.3761 199.999 27.2241 200.093 27.039C200.2 26.8408 200.253 26.6161 200.253 26.3649C200.253 26.1006 200.206 25.8825 200.113 25.7107C200.033 25.5389 199.906 25.4001 199.733 25.2943C199.559 25.1754 199.352 25.0961 199.112 25.0564C198.872 25.0036 198.598 24.9771 198.292 24.9771H195.13V27.832ZM195.13 22.3403H197.711C198.031 22.3403 198.312 22.3072 198.552 22.2411C198.805 22.1751 199.012 22.0825 199.172 21.9636C199.332 21.8446 199.452 21.6992 199.532 21.5274C199.626 21.3556 199.673 21.1573 199.673 20.9326C199.673 20.6286 199.599 20.3907 199.452 20.2189C199.319 20.0339 199.125 19.9083 198.872 19.8422C198.619 19.7629 198.312 19.7233 197.951 19.7233H195.13V22.3403Z" fill="white"/>
<path d="M208.57 30.7861V19.7233H204.307V16.7494H216.115V19.7233H211.812V30.7861H208.57Z" fill="white"/>
<path d="M223.56 30.9447C222.106 30.9447 220.845 30.6473 219.778 30.0525C218.724 29.4446 217.91 28.6053 217.336 27.5347C216.762 26.4508 216.476 25.2018 216.476 23.7876C216.476 22.3337 216.769 21.0714 217.356 20.0008C217.956 18.917 218.79 18.0777 219.858 17.4829C220.925 16.8749 222.186 16.5709 223.64 16.5709C225.068 16.5709 226.309 16.8683 227.363 17.4631C228.43 18.0579 229.257 18.8906 229.844 19.9612C230.445 21.0186 230.745 22.2676 230.745 23.7083C230.745 25.1225 230.451 26.3782 229.864 27.4752C229.277 28.559 228.443 29.4115 227.363 30.0327C226.295 30.6407 225.028 30.9447 223.56 30.9447ZM223.62 27.9114C224.527 27.9114 225.261 27.7065 225.822 27.2968C226.382 26.887 226.789 26.3649 227.042 25.7305C227.296 25.0961 227.423 24.4484 227.423 23.7876C227.423 23.2985 227.349 22.8095 227.203 22.3205C227.069 21.8314 226.849 21.382 226.542 20.9723C226.249 20.5626 225.862 20.2321 225.381 19.981C224.901 19.7299 224.307 19.6043 223.6 19.6043C222.706 19.6043 221.979 19.8092 221.419 20.2189C220.858 20.6154 220.445 21.1309 220.178 21.7653C219.924 22.3998 219.798 23.0672 219.798 23.7677C219.798 24.4683 219.931 25.1357 220.198 25.7702C220.465 26.4046 220.878 26.9201 221.439 27.3166C222.012 27.7131 222.74 27.9114 223.62 27.9114Z" fill="white"/>
</svg>
