<svg width="46" height="36" viewBox="0 0 46 36" fill="none" xmlns="http://www.w3.org/2000/svg">
<path d="M40.7518 33.999C40.7518 33.2876 41.1861 32.7355 41.9358 32.7355C42.6463 32.7355 43.0785 33.2884 43.0785 33.999C43.0785 34.7486 42.6026 35.2607 41.9358 35.2607C41.1853 35.3015 40.7505 34.7091 40.7505 33.999H40.7518ZM43.7899 33.999V30.6047H43.0403V32.5783C42.7632 32.2226 42.3726 32.0254 41.8168 32.0254C40.7518 32.0254 39.9614 32.8541 39.9614 33.999C39.9614 35.1438 40.7505 35.9721 41.8168 35.9721C42.3692 35.9721 42.7632 35.7753 43.0403 35.4196V35.8955H43.7899V33.999ZM33.1338 33.999C33.1338 33.2876 33.5682 32.7355 34.3182 32.7355C35.0283 32.7355 35.4618 33.2884 35.4618 33.999C35.4618 34.7486 34.9847 35.2607 34.3182 35.2607C33.5682 35.3002 33.1338 34.7091 33.1338 33.999ZM36.1724 33.999V32.104H35.4223V32.5812C35.1465 32.2255 34.7559 32.0287 34.1988 32.0287C33.1338 32.0287 32.3434 32.857 32.3434 34.0019C32.3434 35.1459 33.1326 35.9754 34.1988 35.9754C34.7517 35.9754 35.1465 35.7782 35.4223 35.4225V35.8989H36.1724V33.999ZM39.0936 32.0254C38.678 32.0158 38.2882 32.2255 38.0669 32.5783V32.1011H37.3172V35.8901H38.0656V33.7622C38.0656 33.1307 38.381 32.7355 38.8956 32.7355C39.0678 32.743 39.2404 32.7696 39.4077 32.8154L39.6452 32.104C39.4642 32.0583 39.2787 32.0316 39.0923 32.0254H39.0936ZM9.92677 33.999C9.92677 33.2876 10.3611 32.7355 11.1112 32.7355C11.8213 32.7355 12.2548 33.2884 12.2548 33.999C12.2548 34.7486 11.7776 35.2607 11.1112 35.2607C10.3611 35.3002 9.92677 34.7091 9.92677 33.999ZM12.9653 33.999V32.104H12.2152V32.5812C11.9386 32.2255 11.5488 32.0287 10.9918 32.0287C9.92677 32.0287 9.13636 32.857 9.13636 34.0019C9.13636 35.1459 9.92553 35.9754 10.9918 35.9754C11.5446 35.9754 11.9386 35.7782 12.2152 35.4225V35.8989H12.9653V33.999ZM23.1871 32.7355C23.7395 32.7355 24.1347 33.0916 24.173 33.6836H22.1221C22.2402 33.1307 22.598 32.7355 23.1871 32.7355ZM23.2262 32.0254C22.1208 32.0254 21.3712 32.8146 21.3712 33.999C21.3712 35.1829 22.1604 35.9721 23.304 35.9721C23.861 35.9837 24.4051 35.8028 24.8428 35.46L24.4488 34.9071C24.1314 35.1521 23.7449 35.2907 23.3435 35.3015C22.831 35.3015 22.2785 34.9861 22.1995 34.3151H25.0025V33.9998C25.0025 32.8154 24.2912 32.0267 23.2262 32.0267V32.0254ZM28.5149 33.999C28.5149 35.1426 29.2645 35.9721 30.4884 35.9721C31.0413 35.9721 31.4353 35.8539 31.8301 35.5378L31.4353 34.9454C31.1561 35.1725 30.8088 35.2969 30.4489 35.3015C29.7825 35.3015 29.2645 34.789 29.2645 34.0393C29.2645 33.2884 29.7758 32.7805 30.4489 32.7805C30.8088 32.7838 31.1561 32.9094 31.4353 33.1349L31.8301 32.5442C31.4353 32.2276 31.0413 32.1094 30.4884 32.1094C29.3041 32.0296 28.5149 32.8591 28.5149 34.0031V33.999ZM17.0696 32.4194C16.6744 32.1436 16.1216 32.0254 15.5308 32.0254C14.5827 32.0254 13.9916 32.4597 13.9916 33.2098C13.9916 33.8413 14.4263 34.1957 15.2538 34.3151L15.649 34.3546C16.0833 34.4333 16.3591 34.5909 16.3591 34.789C16.3591 35.0648 16.0442 35.2649 15.4518 35.2649C14.9992 35.2749 14.5553 35.1363 14.1888 34.8709L13.7948 35.4621C14.3465 35.8573 15.0175 35.9392 15.4148 35.9392C16.5201 35.9392 17.1113 35.4259 17.1113 34.7157C17.1113 34.0476 16.6349 33.7294 15.8087 33.61L15.4148 33.5709C15.0591 33.5314 14.7471 33.4132 14.7471 33.1765C14.7471 32.8999 15.062 32.6993 15.4967 32.6993C15.9739 32.6993 16.4444 32.8978 16.6819 33.0159L17.0696 32.4194ZM27.6854 32.0254C27.2702 32.0158 26.8804 32.2255 26.6599 32.5783V32.1011H25.9098V35.8901H26.6599V33.7622C26.6599 33.1307 26.9748 32.7355 27.4882 32.7355C27.6621 32.743 27.8335 32.7696 28.0015 32.8154L28.2382 32.104C28.0569 32.0583 27.873 32.0316 27.6854 32.0254ZM20.6606 32.1436H19.2795V30.9999H18.5307V32.1436H17.7428V32.8104H18.5307V34.5909C18.5307 35.4587 18.8473 35.9721 19.7937 35.9721C20.1527 35.9646 20.5042 35.8702 20.8183 35.6963L20.5808 35.0286C20.3678 35.1617 20.1207 35.2299 19.8706 35.2258C19.4754 35.2258 19.2782 34.9891 19.2782 34.5943V32.7805H20.6598V32.1477L20.6606 32.1436ZM8.34719 35.8935V33.5247C8.34719 32.6174 7.79473 32.0254 6.88741 32.0254C6.41108 32.0254 5.90105 32.1831 5.54537 32.6923C5.26955 32.2575 4.87892 32.0254 4.28361 32.0254C3.83391 32.0063 3.40375 32.2139 3.13959 32.5783V32.1011H2.38994V35.8901H3.13959V33.7219C3.13959 33.055 3.5348 32.7355 4.08726 32.7355C4.6393 32.7355 4.95547 33.0916 4.95547 33.7219V35.8935H5.70511V33.7219C5.70511 33.055 6.09908 32.7355 6.65195 32.7355C7.20483 32.7355 7.51975 33.0916 7.51975 33.7219V35.8935H8.34719Z" fill="white"/>
<path d="M16.2013 3.37256H29.8963V25.7106H16.2013V3.37256Z" fill="#FF5F00"/>
<path d="M17.5832 14.5414C17.584 10.1879 19.5759 6.074 22.9901 3.37202C16.8215 -1.47782 7.88976 -0.408673 3.03951 5.75991C-1.81032 11.9281 -0.742012 20.8602 5.4274 25.71C10.5797 29.7624 17.8365 29.7624 22.9901 25.71C19.5759 23.0093 17.584 18.8954 17.5832 14.5414Z" fill="#EB001B"/>
<path d="M46 14.5419C46.0054 22.3803 39.6559 28.7403 31.8166 28.7457C28.6325 28.7478 25.5386 27.6786 23.0347 25.7105C29.2032 20.8328 30.2499 11.8773 25.3714 5.70918C24.6854 4.84221 23.9016 4.05845 23.0347 3.37245C29.1978 -1.47197 38.1212 -0.402828 42.9648 5.76035C44.933 8.26389 46.0021 11.3565 46 14.5419Z" fill="#F79E1B"/>
</svg>
