<svg width="14" height="16" viewBox="0 0 14 16" fill="none" xmlns="http://www.w3.org/2000/svg">
<path d="M7 0C5.51478 0 4.0904 0.642175 3.04019 1.78525C1.98998 2.92833 1.39998 4.47868 1.39998 6.09524V8.20114L0.0741768 11.0872C0.020699 11.2034 -0.0045991 11.3325 0.000686723 11.4623C0.00597255 11.5921 0.0416666 11.7183 0.104377 11.8288C0.167087 11.9394 0.25473 12.0306 0.358976 12.0939C0.463223 12.1572 0.580609 12.1905 0.699979 12.1905H13.3C13.4194 12.1905 13.5368 12.1572 13.641 12.0939C13.7453 12.0306 13.8329 11.9394 13.8956 11.8288C13.9583 11.7183 13.994 11.5921 13.9993 11.4623C14.0046 11.3325 13.9793 11.2034 13.9258 11.0872L12.6 8.20114V6.09524C12.6 4.47868 12.01 2.92833 10.9598 1.78525C9.9096 0.642175 8.48522 0 7 0ZM7 16C6.37913 16.0002 5.77581 15.7757 5.28492 15.362C4.79403 14.9482 4.44341 14.3686 4.28819 13.7143H9.71181C9.55659 14.3686 9.20597 14.9482 8.71508 15.362C8.22419 15.7757 7.62087 16.0002 7 16Z" fill="#424F60"/>
</svg>
