<svg width="24" height="25" viewBox="0 0 24 25" fill="none" xmlns="http://www.w3.org/2000/svg">
<path d="M6.62 11.6228C8.06 14.4528 10.38 16.7628 13.21 18.2128L15.41 16.0128C15.68 15.7428 16.08 15.6528 16.43 15.7728C17.55 16.1428 18.76 16.3428 20 16.3428C20.55 16.3428 21 16.7928 21 17.3428V20.8328C21 21.3828 20.55 21.8328 20 21.8328C10.61 21.8328 3 14.2228 3 4.83276C3 4.28276 3.45 3.83276 4 3.83276H7.5C8.05 3.83276 8.5 4.28276 8.5 4.83276C8.5 6.08276 8.7 7.28276 9.07 8.40276C9.18 8.75276 9.1 9.14276 8.82 9.42276L6.62 11.6228Z" fill="white"/>
</svg>
