<svg width="16" height="14" viewBox="0 0 16 14" fill="none" xmlns="http://www.w3.org/2000/svg">
<path d="M0.883368 0H10.7266V5.63043C10.5088 5.58717 10.2875 5.56505 10.0657 5.56438H6.77171C6.14669 5.5644 5.53651 5.75885 5.02241 6.12184C4.50831 6.48483 4.1147 6.99914 3.89398 7.59628L2.51312 7.27175C1.97541 7.13051 1.40904 7.15246 0.883368 7.33493V0ZM7.21114 1.43597H4.39879V4.30791L5.80497 3.23093L7.21114 4.30791V1.43597Z" fill="#D9D9D9"/>
<path d="M2.26171 8.31712L4.75978 8.90372C4.7309 8.6004 4.76826 8.29432 4.86917 8.00752C4.97008 7.72073 5.13202 7.46036 5.34334 7.24517C5.72248 6.85857 6.23622 6.64119 6.77201 6.64063H10.0667C10.3669 6.63999 10.6643 6.69977 10.9419 6.81656C11.2195 6.93335 11.4718 7.10486 11.6845 7.32128L13.1272 8.79458H16V14H8.00381L3.64679 12.8871L1.01725 11.7426L0.998972 11.7326C0.59953 11.5305 0.287928 11.184 0.124725 10.7604C-0.0384769 10.3368 -0.0416203 9.86634 0.115908 9.4405C0.273435 9.01466 0.580378 8.66384 0.977082 8.45622C1.37379 8.24861 1.83121 8.19903 2.26171 8.31712ZM10.407 8.14481C10.2999 8.10055 10.1856 8.07741 10.0702 8.0766H6.77271C6.69192 8.0766 6.61192 8.09285 6.53728 8.12442C6.46264 8.15599 6.39482 8.20227 6.3377 8.26061C6.28057 8.31894 6.23526 8.3882 6.20434 8.46442C6.17342 8.54064 6.15751 8.62233 6.15751 8.70484C6.15751 8.78734 6.17342 8.86903 6.20434 8.94525C6.23526 9.02147 6.28057 9.09073 6.3377 9.14907C6.39482 9.2074 6.46264 9.25368 6.53728 9.28525C6.61192 9.31682 6.69192 9.33307 6.77271 9.33307H8.96915V10.769H6.4282L1.92002 9.71001L1.90595 9.70642C1.81393 9.6812 1.71605 9.69116 1.63071 9.73444C1.54537 9.77772 1.47845 9.85135 1.44253 9.94147C1.4066 10.0316 1.40415 10.132 1.43563 10.2239C1.46711 10.3157 1.53035 10.3926 1.61347 10.4402L4.09677 11.5229L8.17677 12.564H12.133V9.80981L10.6917 8.33795C10.6094 8.25552 10.5132 8.19046 10.407 8.14481Z" fill="#D9D9D9"/>
</svg>
