<svg width="55" height="19" viewBox="0 0 55 19" fill="none" xmlns="http://www.w3.org/2000/svg">
<path d="M27.2321 0.587544L23.5574 17.7674H19.1125L22.7887 0.587544H27.2321ZM45.93 11.6795L48.2697 5.22956L49.6166 11.6795H45.93ZM50.8893 17.7674H54.9999L51.4118 0.587544H47.6185C46.7655 0.587544 46.0459 1.08301 45.7267 1.84708L39.058 17.7674H43.7236L44.6511 15.2007H50.3525L50.8893 17.7674ZM39.2891 12.1576C39.3092 7.62419 33.0196 7.37375 33.0629 5.34859C33.0768 4.73216 33.6635 4.07707 34.9481 3.90896C35.5839 3.82663 37.3397 3.76132 39.3293 4.67766L40.1104 1.0347C39.0402 0.647062 37.6647 0.272949 35.9522 0.272949C31.5599 0.272949 28.4676 2.60884 28.4429 5.95189C28.4135 8.42652 30.6497 9.80471 32.3344 10.6279C34.065 11.4697 34.6455 12.01 34.6393 12.7628C34.6262 13.9157 33.2581 14.4243 31.9788 14.444C29.745 14.4784 28.4479 13.8403 27.4145 13.3584L26.6098 17.1231C27.6471 17.6 29.5641 18.0155 31.5521 18.0356C36.2212 18.0356 39.2748 15.7302 39.2891 12.1576ZM20.8818 0.587544L13.6813 17.7674H8.98363L5.43999 4.0562C5.22472 3.21252 5.03844 2.90256 4.38412 2.54739C3.31589 1.96766 1.552 1.4235 -0.000106812 1.0861L0.104629 0.587544H7.66727C8.63077 0.587544 9.49764 1.22871 9.71678 2.33869L11.5881 12.2801L16.2135 0.587544H20.8818Z" fill="white"/>
</svg>
