<svg width="360" height="67" viewBox="0 0 360 67" fill="none" xmlns="http://www.w3.org/2000/svg">
<path d="M183.576 39.2543V30.6699L149.749 30.6699V39.2543H183.576Z" fill="white"/>
<path d="M142.512 24.0385C144.882 24.0385 146.804 22.1168 146.804 19.7463C146.804 17.3758 144.882 15.4541 142.512 15.4541L117.269 15.4541C114.898 15.4541 112.976 17.3758 112.976 19.7463C112.976 22.1168 114.898 24.0385 117.269 24.0385H142.512Z" fill="white"/>
<path d="M172.846 45.4361C170.836 46.9451 168.338 47.8422 165.634 47.8422C158.996 47.8422 153.613 42.4595 153.613 35.8215C153.613 29.1834 158.996 23.8007 165.634 23.8007C172.272 23.8007 177.655 29.1834 177.655 35.8215C177.655 37.0166 177.477 38.1673 177.154 39.2546H185.954C186.141 38.1388 186.239 36.9912 186.239 35.8215C186.239 24.4411 177.014 15.2163 165.634 15.2163C154.253 15.2163 145.029 24.4411 145.029 35.8215C145.029 47.2018 154.253 56.4266 165.634 56.4266C171.467 56.4266 176.732 54.0015 180.482 50.1056L172.846 45.4361Z" fill="white"/>
<path d="M197.182 15.197H197.179C194.523 15.197 192.37 17.3501 192.37 20.0059V51.6174C192.37 54.2733 194.523 56.4264 197.179 56.4264H197.182C199.838 56.4264 201.991 54.2733 201.991 51.6174V20.0059C201.991 17.3501 199.838 15.197 197.182 15.197Z" fill="white"/>
<path d="M224.118 48.2163L204.986 29.0852L198.184 35.8881L217.315 55.0192C218.218 55.9226 219.442 56.4267 220.716 56.4267C225.002 56.4267 227.148 51.2468 224.118 48.2163Z" fill="white"/>
<path d="M224.118 23.5788L205.275 42.4214L198.472 35.6185L217.315 16.7759C218.218 15.8724 219.442 15.3684 220.716 15.3684C225.002 15.3684 227.148 20.5482 224.118 23.5788Z" fill="white"/>
<path d="M246.793 48.2163L227.662 29.0852L220.859 35.8881L239.99 55.0192C240.893 55.9226 242.117 56.4267 243.391 56.4267C247.677 56.4267 249.823 51.2468 246.793 48.2163Z" fill="#F12F37"/>
<path d="M246.793 23.5788L227.633 42.7384L220.83 35.9355L239.99 16.7759C240.893 15.8724 242.117 15.3684 243.391 15.3684C247.677 15.3684 249.823 20.5482 246.793 23.5788Z" fill="#F12F37"/>
<path d="M4.80893 66.8874C2.15245 66.8874 0 64.735 0 62.0785V15.197L9.62102 19.0011V62.0785C9.62102 64.735 7.46858 66.8874 4.8121 66.8874H4.80893Z" fill="white"/>
<path d="M129.942 56.4264C127.286 56.4264 125.134 54.274 125.134 51.6175V0L134.755 3.80403V51.6175C134.755 54.274 132.602 56.4264 129.946 56.4264H129.942Z" fill="white"/>
<path d="M51.18 56.4264C48.5235 56.4264 46.3711 54.2739 46.3711 51.6174V15.197L55.9921 19.0011V51.6174C55.9921 54.2739 53.8397 56.4264 51.1832 56.4264H51.18Z" fill="white"/>
<path d="M68.1016 15.197C56.7149 15.197 47.487 24.4281 47.487 35.8117H56.0777C56.0777 29.1705 61.4604 23.7846 68.1048 23.7846C68.9987 23.7846 69.8673 23.8861 70.7042 24.0699C71.9437 21.3215 73.6016 18.8045 75.6019 16.6013C73.2783 15.6947 70.7518 15.1938 68.1048 15.1938L68.1016 15.197Z" fill="white"/>
<path d="M93.4904 15.197C82.1036 15.197 72.8757 24.4281 72.8757 35.8117C72.8757 47.1952 82.1068 56.4264 93.4904 56.4264C104.874 56.4264 114.105 47.1952 114.105 35.8117C114.105 24.4281 104.874 15.197 93.4904 15.197ZM93.4904 47.8388C86.8492 47.8388 81.4633 42.4561 81.4633 35.8117C81.4633 29.1673 86.846 23.7846 93.4904 23.7846C100.135 23.7846 105.517 29.1673 105.517 35.8117C105.517 42.4561 100.135 47.8388 93.4904 47.8388Z" fill="white"/>
<path d="M21.5308 15.197C10.1441 15.197 0.912964 24.425 0.912964 35.8117C0.912964 47.1984 10.1441 56.4264 21.5276 56.4264C32.9112 56.4264 42.1423 47.1952 42.1423 35.8117C42.1423 24.4281 32.9144 15.197 21.5308 15.197ZM21.5308 47.8388C14.8896 47.8388 9.50373 42.4561 9.50373 35.8117C9.50373 29.1673 14.8864 23.7846 21.5308 23.7846C28.1752 23.7846 33.5579 29.1673 33.5579 35.8117C33.5579 42.4561 28.1752 47.8388 21.5308 47.8388Z" fill="white"/>
<rect x="258.357" y="15.2163" width="101.643" height="41.6519" rx="8" fill="#F12F37"/>
<path d="M267.466 46.8001L275.985 25.4619H281.218L289.645 46.8001H284.321L283.134 43.4849H273.977L272.76 46.8001H267.466ZM275.528 39.0545H281.583L278.601 30.7965L275.528 39.0545Z" fill="white"/>
<path d="M291.702 46.8001V25.4619H301.772C302.725 25.4619 303.597 25.5624 304.388 25.7633C305.199 25.9441 305.899 26.2556 306.487 26.6976C307.096 27.1196 307.573 27.6922 307.917 28.4155C308.262 29.1188 308.435 30.0129 308.435 31.0979C308.435 31.9217 308.242 32.7053 307.856 33.4487C307.471 34.1921 306.923 34.7647 306.214 35.1666C307.167 35.5283 307.927 36.131 308.495 36.9749C309.084 37.7987 309.378 38.8737 309.378 40.1998C309.378 41.5058 309.134 42.5908 308.647 43.4547C308.181 44.2986 307.532 44.9717 306.7 45.474C305.889 45.9563 304.956 46.2978 303.901 46.4987C302.847 46.6997 301.741 46.8001 300.585 46.8001H291.702ZM296.63 42.3095H301.072C301.579 42.3095 302.035 42.2693 302.441 42.1889C302.867 42.0884 303.222 41.9578 303.506 41.7971C303.81 41.6163 304.033 41.3852 304.175 41.1039C304.338 40.8025 304.419 40.461 304.419 40.0792C304.419 39.6774 304.348 39.3458 304.206 39.0846C304.084 38.8234 303.891 38.6124 303.628 38.4517C303.364 38.2709 303.05 38.1503 302.685 38.09C302.319 38.0097 301.904 37.9695 301.437 37.9695H296.63V42.3095ZM296.63 33.961H300.555C301.042 33.961 301.468 33.9108 301.833 33.8103C302.218 33.7099 302.532 33.5692 302.776 33.3884C303.019 33.2076 303.202 32.9866 303.323 32.7254C303.465 32.4642 303.536 32.1628 303.536 31.8212C303.536 31.3591 303.425 30.9974 303.202 30.7362C302.999 30.4549 302.705 30.264 302.319 30.1636C301.934 30.043 301.468 29.9827 300.92 29.9827H296.63V33.961Z" fill="white"/>
<path d="M317.062 46.8001V29.9827H310.582V25.4619H328.532V29.9827H321.991V46.8001H317.062Z" fill="white"/>
<path d="M339.85 47.0412C337.639 47.0412 335.722 46.5892 334.1 45.685C332.497 44.7607 331.26 43.4849 330.388 41.8574C329.516 40.2098 329.08 38.3111 329.08 36.1612C329.08 33.951 329.526 32.0322 330.418 30.4047C331.331 28.7571 332.599 27.4812 334.221 26.5771C335.844 25.6528 337.761 25.1907 339.971 25.1907C342.142 25.1907 344.028 25.6428 345.63 26.5469C347.253 27.4511 348.51 28.7169 349.403 30.3444C350.315 31.9518 350.772 33.8505 350.772 36.0406C350.772 38.1905 350.325 40.0993 349.433 41.767C348.541 43.4146 347.273 44.7105 345.63 45.6549C344.007 46.5791 342.081 47.0412 339.85 47.0412ZM339.941 42.43C341.32 42.43 342.436 42.1186 343.287 41.4957C344.139 40.8729 344.758 40.0792 345.143 39.1148C345.529 38.1503 345.721 37.1658 345.721 36.1612C345.721 35.4177 345.61 34.6743 345.387 33.9309C345.184 33.1875 344.849 32.5043 344.383 31.8815C343.936 31.2586 343.348 30.7563 342.618 30.3745C341.888 29.9928 340.985 29.8019 339.91 29.8019C338.552 29.8019 337.446 30.1133 336.594 30.7362C335.742 31.339 335.114 32.1226 334.708 33.087C334.323 34.0515 334.13 35.0661 334.13 36.131C334.13 37.1959 334.333 38.2106 334.739 39.175C335.144 40.1395 335.773 40.9231 336.625 41.5259C337.497 42.1286 338.602 42.43 339.941 42.43Z" fill="white"/>
</svg>
