<svg width="212" height="80" viewBox="0 0 212 80" fill="none" xmlns="http://www.w3.org/2000/svg">
<path d="M153.776 32.8822V25.6913H125.44V32.8822H153.776Z" fill="#0D336C"/>
<path d="M119.378 20.1361C121.363 20.1361 122.973 18.5264 122.973 16.5407C122.973 14.555 121.363 12.9452 119.378 12.9452L98.2323 12.9452C96.2466 12.9452 94.6369 14.555 94.6369 16.5407C94.6369 18.5264 96.2466 20.1361 98.2323 20.1361H119.378Z" fill="#0D336C"/>
<path d="M144.787 38.0603C143.104 39.3243 141.011 40.0758 138.746 40.0758C133.186 40.0758 128.677 35.5668 128.677 30.0064C128.677 24.4459 133.186 19.937 138.746 19.937C144.307 19.937 148.816 24.4459 148.816 30.0064C148.816 31.0075 148.667 31.9714 148.396 32.8822H155.768C155.924 31.9475 156.007 30.9862 156.007 30.0064C156.007 20.4734 148.279 12.7461 138.746 12.7461C129.213 12.7461 121.486 20.4734 121.486 30.0064C121.486 39.5394 129.213 47.2667 138.746 47.2667C143.632 47.2667 148.043 45.2353 151.184 41.9717L144.787 38.0603Z" fill="#0D336C"/>
<path d="M165.173 12.7301H165.17C162.946 12.7301 161.142 14.5336 161.142 16.7584V43.2384C161.142 45.4631 162.946 47.2667 165.17 47.2667H165.173C167.398 47.2667 169.201 45.4631 169.201 43.2384V16.7584C169.201 14.5336 167.398 12.7301 165.173 12.7301Z" fill="#0D336C"/>
<path d="M187.736 40.3891L171.711 24.3636L166.012 30.0622L182.038 46.0877C182.795 46.8445 183.82 47.2667 184.887 47.2667C188.477 47.2667 190.275 42.9277 187.736 40.3891Z" fill="#0D336C"/>
<path d="M187.736 19.7511L171.952 35.535L166.254 29.8364L182.038 14.0525C182.795 13.2957 183.82 12.8735 184.887 12.8735C188.477 12.8735 190.275 17.2125 187.736 19.7511Z" fill="#0D336C"/>
<path d="M206.731 40.3891L190.705 24.3636L185.007 30.0622L201.032 46.0877C201.789 46.8445 202.814 47.2667 203.881 47.2667C207.471 47.2667 209.269 42.9277 206.731 40.3891Z" fill="#EC1C24"/>
<path d="M206.731 19.7511L190.681 35.8005L184.983 30.102L201.032 14.0525C201.789 13.2957 202.814 12.8735 203.881 12.8735C207.472 12.8735 209.269 17.2125 206.731 19.7511Z" fill="#EC1C24"/>
<path d="M4.02829 56.0296C1.80304 56.0296 0 54.2265 0 52.0013V12.7301L8.05923 15.9166V52.0013C8.05923 54.2265 6.2562 56.0296 4.03094 56.0296H4.02829Z" fill="#0D336C"/>
<path d="M108.849 47.2667C106.624 47.2667 104.821 45.4636 104.821 43.2384V0L112.88 3.18652V43.2384C112.88 45.4636 111.077 47.2667 108.851 47.2667H108.849Z" fill="#0D336C"/>
<path d="M42.8719 47.2667C40.6467 47.2667 38.8437 45.4636 38.8437 43.2384V12.7301L46.9029 15.9166V43.2384C46.9029 45.4636 45.0999 47.2667 42.8746 47.2667H42.8719Z" fill="#0D336C"/>
<path d="M57.0467 12.7302C47.5084 12.7302 39.7784 20.4628 39.7784 29.9985H46.9746C46.9746 24.4353 51.4836 19.9237 57.0493 19.9237C57.7982 19.9237 58.5258 20.0087 59.2268 20.1627C60.2651 17.8605 61.6539 15.7521 63.3294 13.9065C61.383 13.1471 59.2666 12.7275 57.0493 12.7275L57.0467 12.7302Z" fill="#0D336C"/>
<path d="M78.314 12.7301C68.7756 12.7301 61.0457 20.4627 61.0457 29.9984C61.0457 39.534 68.7783 47.2667 78.314 47.2667C87.8496 47.2667 95.5822 39.534 95.5822 29.9984C95.5822 20.4627 87.8496 12.7301 78.314 12.7301ZM78.314 40.0731C72.7508 40.0731 68.2393 35.5642 68.2393 29.9984C68.2393 24.4326 72.7482 19.9237 78.314 19.9237C83.8797 19.9237 88.3887 24.4326 88.3887 29.9984C88.3887 35.5642 83.8797 40.0731 78.314 40.0731Z" fill="#0D336C"/>
<path d="M18.0357 12.7301C8.49739 12.7301 0.764771 20.4601 0.764771 29.9984C0.764771 39.5367 8.49739 47.2667 18.033 47.2667C27.5687 47.2667 35.3013 39.534 35.3013 29.9984C35.3013 20.4627 27.5714 12.7301 18.0357 12.7301ZM18.0357 40.0731C12.4726 40.0731 7.96099 35.5642 7.96099 29.9984C7.96099 24.4326 12.4699 19.9237 18.0357 19.9237C23.6015 19.9237 28.1104 24.4326 28.1104 29.9984C28.1104 35.5642 23.6015 40.0731 18.0357 40.0731Z" fill="#0D336C"/>
<rect x="149.235" y="55.9023" width="59.2913" height="24.2968" rx="8" transform="rotate(-7.33862 149.235 55.9023)" fill="#EC1C24"/>
<path d="M156.859 73.4965L160.197 60.5166L163.225 60.1267L169.69 71.844L166.61 72.2407L165.677 70.411L160.379 71.0934L159.922 73.1021L156.859 73.4965ZM160.946 68.4145L164.449 67.9634L162.109 63.4079L160.946 68.4145Z" fill="white"/>
<path d="M170.88 71.6907L169.29 59.3455L175.116 58.5951C175.668 58.5241 176.18 58.5173 176.653 58.5746C177.135 58.6187 177.564 58.7468 177.937 58.9587C178.32 59.1575 178.639 59.4533 178.892 59.846C179.144 60.2272 179.31 60.7317 179.391 61.3594C179.452 61.836 179.399 62.3037 179.232 62.7625C179.064 63.2213 178.79 63.5934 178.409 63.8788C178.988 64.017 179.473 64.3091 179.864 64.755C180.266 65.1878 180.516 65.7878 180.615 66.555C180.712 67.3106 180.652 67.9565 180.435 68.4926C180.228 69.0156 179.903 69.4534 179.459 69.8059C179.026 70.1454 178.511 70.4125 177.916 70.6073C177.321 70.8022 176.689 70.9427 176.02 71.0288L170.88 71.6907ZM173.397 68.7254L175.967 68.3944C176.26 68.3567 176.521 68.2994 176.75 68.2227C176.989 68.1328 177.185 68.0308 177.337 67.9167C177.499 67.7894 177.611 67.6391 177.672 67.4658C177.744 67.2793 177.765 67.0756 177.737 66.8548C177.707 66.6223 177.641 66.4358 177.54 66.2952C177.45 66.1532 177.323 66.0455 177.158 65.9721C176.992 65.8871 176.801 65.8408 176.585 65.8332C176.368 65.8139 176.125 65.8216 175.855 65.8563L173.074 66.2145L173.397 68.7254ZM172.775 63.8954L175.046 63.603C175.327 63.5667 175.57 63.5059 175.774 63.4206C175.989 63.3338 176.161 63.229 176.288 63.1062C176.415 62.9835 176.504 62.842 176.555 62.6818C176.618 62.5201 176.637 62.3404 176.611 62.1428C176.577 61.8755 176.485 61.6745 176.337 61.54C176.198 61.3924 176.014 61.3039 175.784 61.2745C175.552 61.2334 175.277 61.2333 174.96 61.2741L172.479 61.5938L172.775 63.8954Z" fill="white"/>
<path d="M185.553 69.8011L184.3 60.0714L180.551 60.5542L180.214 57.9387L190.599 56.6012L190.935 59.2168L187.151 59.7041L188.404 69.4339L185.553 69.8011Z" fill="white"/>
<path d="M198.754 68.2427C197.475 68.4074 196.333 68.2887 195.327 67.8865C194.331 67.4711 193.52 66.8252 192.894 65.9486C192.267 65.0603 191.873 63.9943 191.713 62.7505C191.548 61.4718 191.663 60.3284 192.058 59.3203C192.464 58.2991 193.102 57.4665 193.973 56.8225C194.843 56.1669 195.918 55.7567 197.197 55.592C198.452 55.4303 199.577 55.5513 200.572 55.955C201.578 56.3572 202.399 56.9958 203.037 57.8709C203.685 58.7329 204.09 59.7974 204.254 61.0645C204.414 62.3083 204.298 63.4459 203.906 64.4772C203.512 65.4969 202.875 66.3411 201.995 67.0099C201.125 67.6655 200.045 68.0765 198.754 68.2427ZM198.463 65.5681C199.261 65.4653 199.884 65.202 200.33 64.7782C200.776 64.3543 201.075 63.8491 201.226 63.2624C201.377 62.6757 201.416 62.0917 201.341 61.5105C201.285 61.0804 201.165 60.6586 200.981 60.2451C200.808 59.8301 200.564 59.4598 200.247 59.1342C199.943 58.8071 199.565 58.5603 199.114 58.3939C198.663 58.2274 198.127 58.1842 197.505 58.2643C196.719 58.3656 196.102 58.6281 195.656 59.0519C195.208 59.4642 194.903 59.9644 194.74 60.5526C194.589 61.1392 194.553 61.7406 194.632 62.3567C194.712 62.9728 194.905 63.5448 195.211 64.0725C195.518 64.6003 195.94 65.0068 196.478 65.292C197.027 65.5758 197.689 65.6678 198.463 65.5681Z" fill="white"/>
</svg>
