<svg width="30" height="30" viewBox="0 0 30 30" fill="none" xmlns="http://www.w3.org/2000/svg">
<path d="M0 15C0 6.71573 6.71573 0 15 0V0C23.2843 0 30 6.71573 30 15V15C30 23.2843 23.2843 30 15 30V30C6.71573 30 0 23.2843 0 15V15Z" fill="#4DB45E"/>
<path d="M22 14.9969L20.4473 13.2702L20.6636 10.9845L18.3664 10.4752L17.1636 8.5L15 9.40683L12.8364 8.5L11.6336 10.4752L9.33636 10.9783L9.55273 13.264L8 14.9969L9.55273 16.7236L9.33636 19.0155L11.6336 19.5248L12.8364 21.5L15 20.587L17.1636 21.4938L18.3664 19.5186L20.6636 19.0093L20.4473 16.7236L22 14.9969ZM13.7273 18.1025L11.1818 15.618L12.0791 14.7422L13.7273 16.3447L17.9209 12.2516L18.8182 13.1335L13.7273 18.1025Z" fill="white"/>
</svg>
