<svg width="64" height="19" viewBox="0 0 64 19" fill="none" xmlns="http://www.w3.org/2000/svg">
<g clip-path="url(#clip0_1120_2878)">
<path fill-rule="evenodd" clip-rule="evenodd" d="M17.2459 0.0961918V0.104103C17.2379 0.104103 14.746 0.0961917 14.0815 2.4774C13.4723 4.66084 11.7556 10.689 11.7082 10.8552H11.2335C11.2335 10.8552 9.47726 4.69248 8.8602 2.46949C8.19567 0.0882807 5.6958 0.0961918 5.6958 0.0961918H-0.00012207V18.2124H5.6958V7.45342H5.93313H6.17046L9.49308 18.2124H13.4486L16.7712 7.46134H17.2459V18.2124H22.9418V0.0961918H17.2459Z" fill="#4DB45E"/>
<path fill-rule="evenodd" clip-rule="evenodd" d="M38.0518 0.0961914C38.0518 0.0961914 36.3826 0.2465 35.5994 1.99483L31.5648 10.8552H31.0901V0.0961914H25.3942V18.2124H30.7737C30.7737 18.2124 32.522 18.0542 33.3052 16.3137L37.2607 7.45342H37.7354V18.2124H43.4313V0.0961914H38.0518Z" fill="#4DB45E"/>
<path fill-rule="evenodd" clip-rule="evenodd" d="M45.9628 8.32275V18.2115H51.6587V12.4365H57.8293C60.519 12.4365 62.7974 10.7198 63.6439 8.32275H45.9628Z" fill="#4DB45E"/>
<path fill-rule="evenodd" clip-rule="evenodd" d="M57.8293 0.0961914H45.1638C45.7966 3.54539 48.3835 6.31424 51.7299 7.21609C52.4893 7.42178 53.2884 7.53253 54.1111 7.53253H63.8733C63.9603 7.12116 63.9999 6.70188 63.9999 6.26677C63.9999 2.85713 61.2389 0.0961914 57.8293 0.0961914Z" fill="url(#paint0_linear_1120_2878)"/>
</g>
<defs>
<linearGradient id="paint0_linear_1120_2878" x1="45.1653" y1="3.81436" x2="63.9999" y2="3.81436" gradientUnits="userSpaceOnUse">
<stop offset="0.3" stop-color="#00B4E6"/>
<stop offset="1" stop-color="#088CCB"/>
</linearGradient>
<clipPath id="clip0_1120_2878">
<rect width="64" height="18.1162" fill="white" transform="translate(-0.00012207 0.0961914)"/>
</clipPath>
</defs>
</svg>
