<svg width="38" height="38" viewBox="0 0 38 38" fill="none" xmlns="http://www.w3.org/2000/svg">
<path d="M19 34C27.2843 34 34 27.2843 34 19C34 10.7157 27.2843 4 19 4C10.7157 4 4 10.7157 4 19C4 27.2843 10.7157 34 19 34Z" fill="url(#paint0_linear_1074_445)"/>
<path fill-rule="evenodd" clip-rule="evenodd" d="M10.7898 18.8419C15.1626 16.9368 18.0785 15.6808 19.5374 15.0739C23.7031 13.3413 24.5687 13.0403 25.1329 13.0304C25.257 13.0282 25.5344 13.0589 25.7141 13.2048C25.8659 13.3279 25.9076 13.4942 25.9276 13.611C25.9476 13.7277 25.9725 13.9937 25.9527 14.2015C25.7269 16.5733 24.7502 22.3292 24.2533 24.9857C24.043 26.1098 23.629 26.4867 23.2281 26.5236C22.3571 26.6037 21.6956 25.9479 20.8519 25.3949C19.5317 24.5295 18.7859 23.9907 17.5044 23.1463C16.0235 22.1703 16.9835 21.6339 17.8275 20.7573C18.0484 20.5279 21.8864 17.037 21.9607 16.7203C21.97 16.6807 21.9786 16.533 21.8909 16.4551C21.8032 16.3771 21.6737 16.4038 21.5803 16.425C21.4479 16.455 19.3389 17.849 15.2532 20.607C14.6546 21.018 14.1123 21.2183 13.6265 21.2078C13.0909 21.1963 12.0607 20.905 11.2948 20.656C10.3555 20.3507 9.60886 20.1892 9.67387 19.6707C9.70773 19.4005 10.0797 19.1243 10.7898 18.8419Z" fill="white"/>
<defs>
<linearGradient id="paint0_linear_1074_445" x1="1504" y1="4" x2="1504" y2="2981.75" gradientUnits="userSpaceOnUse">
<stop stop-color="#2AABEE"/>
<stop offset="1" stop-color="#229ED9"/>
</linearGradient>
</defs>
</svg>
