<svg width="20" height="20" viewBox="0 0 20 20" fill="none" xmlns="http://www.w3.org/2000/svg">
<path d="M10.0018 18.3338C5.39929 18.3338 1.66846 14.6029 1.66846 10.0004C1.66846 5.39795 5.39929 1.66711 10.0018 1.66711C14.6043 1.66711 18.3351 5.39795 18.3351 10.0004C18.3351 14.6029 14.6043 18.3338 10.0018 18.3338ZM10.0018 16.6671C11.7699 16.6671 13.4656 15.9647 14.7158 14.7145C15.9661 13.4642 16.6685 11.7686 16.6685 10.0004C16.6685 8.23234 15.9661 6.53664 14.7158 5.2864C13.4656 4.03616 11.7699 3.33378 10.0018 3.33378C8.23368 3.33378 6.53799 4.03616 5.28774 5.2864C4.0375 6.53664 3.33512 8.23234 3.33512 10.0004C3.33512 11.7686 4.0375 13.4642 5.28774 14.7145C6.53799 15.9647 8.23368 16.6671 10.0018 16.6671ZM10.8351 10.0004H14.1685V11.6671H9.16846V5.83378H10.8351V10.0004Z" fill="#424F60"/>
</svg>
