<svg width="38" height="38" viewBox="0 0 38 38" fill="none" xmlns="http://www.w3.org/2000/svg">
<path fill-rule="evenodd" clip-rule="evenodd" d="M33.9945 18.5697C33.9713 21.1275 33.2872 23.6355 32.0089 25.8489C30.7307 28.0623 28.9021 29.9053 26.7016 31.198C24.5011 32.4907 22.004 33.1889 19.4541 33.2245C16.9042 33.26 14.3888 32.6316 12.1533 31.4007L4 34L6.65732 26.1388C5.27424 23.8582 4.54493 21.2391 4.5496 18.5697C4.60248 14.6874 6.17715 10.982 8.93291 8.25537C11.6887 5.52871 15.4039 4 19.2748 4C23.1457 4 26.8609 5.52871 29.6167 8.25537C32.3725 10.982 33.9471 14.6874 34 18.5697H33.9945ZM19.2707 6.24865C16.0035 6.24278 12.8672 7.53637 10.5492 9.84592C8.23125 12.1555 6.92064 15.2926 6.90464 18.5697C6.8983 21.1669 7.7196 23.6982 9.24869 25.7942L7.70157 30.3753L12.4584 28.8593C14.3197 30.0844 16.4757 30.7839 18.6997 30.8844C20.9237 30.9849 23.1336 30.4826 25.0972 29.4304C27.0608 28.3782 28.7056 26.8149 29.8588 24.9048C31.0119 22.9946 31.6308 20.8082 31.6505 18.5752C31.6352 15.295 30.3231 12.1548 28.0021 9.8438C25.6812 7.53282 22.541 6.23986 19.2707 6.24865ZM26.7068 21.9601C26.6134 21.8085 26.3743 21.7203 26.0143 21.5411C25.6543 21.3619 23.8763 20.4909 23.5411 20.3724C23.2058 20.2539 22.9695 20.1905 22.7304 20.5516C22.4913 20.9127 21.7961 21.7203 21.5872 21.9601C21.3784 22.1999 21.1668 22.2357 20.8041 22.0483C19.7415 21.6273 18.7597 21.0248 17.9022 20.2677C17.1148 19.5441 16.4379 18.7083 15.8934 17.7869C15.6845 17.4286 15.8714 17.2356 16.05 17.0537C16.2286 16.8718 16.4128 16.6347 16.5996 16.4252C16.7469 16.2427 16.868 16.0405 16.9596 15.8244C17.0077 15.7255 17.0302 15.6161 17.0249 15.5062C17.0196 15.3964 16.9868 15.2896 16.9294 15.1959C16.8387 15.0167 16.105 13.2499 15.8302 12.5305C15.5554 11.8111 15.2284 11.8386 15.0058 11.8386C14.805 11.848 14.605 11.8692 14.4067 11.902C14.4067 11.902 13.684 11.9902 13.3542 12.3513C12.9466 12.7339 12.6235 13.198 12.4058 13.7136C12.188 14.2292 12.0805 14.7849 12.0901 15.3447C12.0901 17.1143 13.3817 18.8233 13.5631 19.0604C13.7444 19.2974 16.0583 23.0461 19.7296 24.4849C23.4009 25.9238 23.3954 25.4138 24.0605 25.3615C24.7255 25.3091 26.1957 24.4932 26.4979 23.6525C26.8002 22.8118 26.8085 22.1062 26.7068 21.9463V21.9601Z" fill="#7AD26D"/>
</svg>
