<svg width="290" height="102" viewBox="0 0 290 102" fill="none" xmlns="http://www.w3.org/2000/svg">
<path d="M182.344 38.9912V30.4644L148.744 30.4644V38.9912H182.344Z" fill="white"/>
<path d="M141.555 23.8762C143.909 23.8762 145.818 21.9674 145.818 19.6128C145.818 17.2582 143.909 15.3494 141.555 15.3494L116.481 15.3494C114.127 15.3494 112.218 17.2582 112.218 19.6128C112.218 21.9674 114.127 23.8762 116.481 23.8762H141.555Z" fill="white"/>
<path d="M171.686 45.131C169.689 46.6298 167.208 47.5209 164.522 47.5209C157.929 47.5209 152.582 42.1744 152.582 35.5809C152.582 28.9874 157.929 23.6408 164.522 23.6408C171.116 23.6408 176.462 28.9874 176.462 35.5809C176.462 36.768 176.286 37.911 175.965 38.991H184.706C184.891 37.8826 184.989 36.7428 184.989 35.5809C184.989 24.2769 175.826 15.114 164.522 15.114C153.218 15.114 144.055 24.2769 144.055 35.5809C144.055 46.8849 153.218 56.0478 164.522 56.0478C170.316 56.0478 175.546 53.639 179.271 49.7691L171.686 45.131Z" fill="white"/>
<path d="M195.857 15.0955H195.854C193.216 15.0955 191.078 17.234 191.078 19.8721V51.2714C191.078 53.9095 193.216 56.0481 195.854 56.0481H195.857C198.495 56.0481 200.634 53.9095 200.634 51.2714V19.8721C200.634 17.234 198.495 15.0955 195.857 15.0955Z" fill="white"/>
<path d="M222.612 47.8919L203.609 28.8892L196.852 35.6464L215.855 54.6491C216.752 55.5465 217.968 56.0471 219.233 56.0471C223.491 56.0471 225.622 50.9021 222.612 47.8919Z" fill="white"/>
<path d="M222.613 23.4211L203.896 42.1373L197.139 35.3801L215.855 16.6639C216.753 15.7665 217.968 15.2659 219.234 15.2659C223.491 15.2659 225.623 20.4109 222.613 23.4211Z" fill="white"/>
<path d="M245.136 47.8919L226.133 28.8892L219.376 35.6464L238.378 54.6491C239.276 55.5465 240.491 56.0471 241.757 56.0471C246.014 56.0471 248.146 50.9021 245.136 47.8919Z" fill="#EC1C24"/>
<path d="M245.136 23.4211L226.105 42.4522L219.348 35.695L238.379 16.6639C239.276 15.7665 240.492 15.2659 241.757 15.2659C246.014 15.2659 248.146 20.4109 245.136 23.4211Z" fill="#EC1C24"/>
<path d="M4.77663 66.439C2.13799 66.439 0 64.301 0 61.6623V15.0955L9.55642 18.874V61.6623C9.55642 64.301 7.41843 66.439 4.77978 66.439H4.77663Z" fill="white"/>
<path d="M129.07 56.0477C126.431 56.0477 124.293 53.9097 124.293 51.2711V0L133.85 3.7785V51.2711C133.85 53.9097 131.712 56.0477 129.073 56.0477H129.07Z" fill="white"/>
<path d="M50.8362 56.0481C48.1975 56.0481 46.0595 53.9101 46.0595 51.2714V15.0955L55.616 18.874V51.2714C55.616 53.9101 53.478 56.0481 50.8393 56.0481H50.8362Z" fill="white"/>
<path d="M67.6443 15.0959C56.334 15.0959 47.168 24.2651 47.168 35.5722H55.7011C55.7011 28.9756 61.0477 23.6259 67.6474 23.6259C68.5354 23.6259 69.3981 23.7266 70.2294 23.9093C71.4605 21.1793 73.1073 18.6792 75.0942 16.4908C72.7862 15.5903 70.2766 15.0928 67.6474 15.0928L67.6443 15.0959Z" fill="white"/>
<path d="M92.8627 15.0955C81.5524 15.0955 72.3865 24.2646 72.3865 35.5718C72.3865 46.8789 81.5556 56.0481 92.8627 56.0481C104.17 56.0481 113.339 46.8789 113.339 35.5718C113.339 24.2646 104.17 15.0955 92.8627 15.0955ZM92.8627 47.5181C86.2661 47.5181 80.9164 42.1716 80.9164 35.5718C80.9164 28.972 86.263 23.6254 92.8627 23.6254C99.4625 23.6254 104.809 28.972 104.809 35.5718C104.809 42.1716 99.4625 47.5181 92.8627 47.5181Z" fill="white"/>
<path d="M21.3864 15.0955C10.0761 15.0955 0.907013 24.2615 0.907013 35.5718C0.907013 46.8821 10.0761 56.0481 21.3833 56.0481C32.6904 56.0481 41.8595 46.8789 41.8595 35.5718C41.8595 24.2646 32.6935 15.0955 21.3864 15.0955ZM21.3864 47.5181C14.7898 47.5181 9.44009 42.1716 9.44009 35.5718C9.44009 28.972 14.7866 23.6254 21.3864 23.6254C27.9862 23.6254 33.3327 28.972 33.3327 35.5718C33.3327 42.1716 27.9862 47.5181 21.3864 47.5181Z" fill="white"/>
<rect x="201.314" y="66.812" width="84.9361" height="34.8058" rx="8" transform="rotate(-7.33865 201.314 66.812)" fill="#EC1C24"/>
<path d="M212.236 92.0166L217.018 73.4225L221.355 72.864L230.617 89.6493L226.204 90.2176L224.867 87.5966L217.278 88.574L216.623 91.4516L212.236 92.0166ZM218.091 84.7366L223.108 84.0904L219.756 77.5644L218.091 84.7366Z" fill="white"/>
<path d="M232.322 89.4298L230.044 71.7449L238.39 70.67C239.18 70.5683 239.914 70.5585 240.591 70.6405C241.282 70.7038 241.895 70.8872 242.43 71.1908C242.979 71.4756 243.436 71.8993 243.799 72.462C244.159 73.008 244.398 73.7306 244.513 74.6299C244.601 75.3126 244.525 75.9826 244.285 76.6399C244.045 77.2972 243.653 77.8302 243.107 78.239C243.936 78.437 244.63 78.8554 245.191 79.4942C245.767 80.1142 246.125 80.9737 246.267 82.0728C246.406 83.1552 246.32 84.0804 246.009 84.8484C245.712 85.5976 245.246 86.2247 244.611 86.7298C243.99 87.216 243.253 87.5987 242.4 87.8778C241.548 88.1569 240.642 88.3582 239.684 88.4816L232.322 89.4298ZM235.927 85.1819L239.608 84.7078C240.029 84.6537 240.402 84.5716 240.73 84.4617C241.072 84.333 241.353 84.1869 241.571 84.0234C241.804 83.841 241.964 83.6257 242.051 83.3774C242.154 83.1103 242.185 82.8186 242.144 82.5022C242.101 82.1691 242.007 81.9019 241.861 81.7006C241.732 81.4971 241.55 81.3428 241.315 81.2377C241.077 81.116 240.803 81.0497 240.494 81.0387C240.183 81.011 239.834 81.0221 239.448 81.0719L235.464 81.585L235.927 85.1819ZM235.036 78.2628L238.289 77.8439C238.692 77.7919 239.04 77.7049 239.331 77.5826C239.64 77.4582 239.886 77.3081 240.068 77.1323C240.251 76.9564 240.378 76.7537 240.451 76.5243C240.541 76.2926 240.568 76.0353 240.531 75.7522C240.482 75.3692 240.351 75.0813 240.138 74.8887C239.94 74.6772 239.676 74.5504 239.346 74.5082C239.013 74.4495 238.62 74.4493 238.167 74.5078L234.611 74.9656L235.036 78.2628Z" fill="white"/>
<path d="M253.34 86.7228L251.545 72.7847L246.174 73.4764L245.692 69.7296L260.568 67.8137L261.051 71.5605L255.63 72.2587L257.425 86.1968L253.34 86.7228Z" fill="white"/>
<path d="M272.252 84.4904C270.419 84.7264 268.783 84.5563 267.341 83.9801C265.915 83.3851 264.753 82.4597 263.857 81.204C262.958 79.9316 262.394 78.4045 262.164 76.6226C261.929 74.7909 262.094 73.1529 262.659 71.7088C263.24 70.2459 264.154 69.0532 265.403 68.1306C266.649 67.1914 268.188 66.6038 270.02 66.3679C271.819 66.1362 273.43 66.3096 274.855 66.8879C276.296 67.4641 277.473 68.379 278.387 69.6326C279.315 70.8673 279.896 72.3923 280.129 74.2074C280.359 75.9892 280.193 77.6188 279.631 79.0962C279.067 80.557 278.155 81.7664 276.894 82.7244C275.648 83.6636 274.101 84.2523 272.252 84.4904ZM271.835 80.6589C272.978 80.5117 273.869 80.1345 274.509 79.5274C275.148 78.9202 275.576 78.1964 275.793 77.356C276.009 76.5155 276.064 75.679 275.957 74.8464C275.877 74.2302 275.706 73.626 275.441 73.0337C275.194 72.4392 274.844 71.9087 274.39 71.4423C273.954 70.9737 273.413 70.6201 272.767 70.3817C272.121 70.1432 271.353 70.0814 270.462 70.1961C269.336 70.3412 268.453 70.7173 267.813 71.3244C267.172 71.9149 266.734 72.6315 266.501 73.4741C266.285 74.3145 266.233 75.176 266.347 76.0586C266.46 76.9412 266.737 77.7605 267.176 78.5165C267.615 79.2725 268.22 79.8549 268.99 80.2635C269.777 80.67 270.726 80.8018 271.835 80.6589Z" fill="white"/>
</svg>
